<?xml version="1.0" encoding="UTF-8"?> <svg xmlns="http://www.w3.org/2000/svg" width="80" height="80" viewBox="0 0 80 80" fill="none"> <path d="M40.0001 52.3077C44.5316 52.3077 48.2052 48.6342 48.2052 44.1026C48.2052 39.571 44.5316 35.8975 40.0001 35.8975C35.4685 35.8975 31.7949 39.571 31.7949 44.1026C31.7949 48.6342 35.4685 52.3077 40.0001 52.3077Z" fill="#A6AAC8"></path> <path d="M39.8646 55.036L39.6622 55.0347L38.6803 66.8323L40 68.1519L41.3196 66.8323L40.3377 55.0429H40C39.9548 55.0429 39.9097 55.036 39.8646 55.036Z" fill="#A6AAC8"></path> <path d="M67.5857 38.6323C66.9279 38.6323 66.2824 38.899 65.8175 39.3639L55.1316 50.0498C52.8451 52.3363 49.8243 53.846 46.6216 54.3055L43.0619 54.8046L44.1504 67.8672L40 72.019L35.8496 67.8686L36.9381 54.8156L33.3799 54.3069C30.1771 53.8474 27.1563 52.3376 24.8698 50.0511L14.184 39.3653C13.7176 38.899 13.0735 38.6323 12.4144 38.6323C11.0359 38.6323 9.91455 39.7537 9.91455 41.1322C9.91455 41.7899 10.1812 42.4354 10.6462 42.9004L30.4274 62.6816V79.658H49.5727V62.6816L69.3539 42.9004C69.8188 42.4354 70.0855 41.7913 70.0855 41.1322C70.0855 39.7537 68.9641 38.6323 67.5857 38.6323Z" fill="#A6AAC8"></path> <path d="M71.453 26.325C66.9279 26.325 63.2479 30.005 63.2479 34.5301H60.5129C60.5129 28.5828 65.2855 23.739 71.2014 23.6023C69.9077 16.5814 63.6937 11.2823 56.4103 11.2823C53.972 11.2823 51.6335 11.858 49.4606 12.9917L48.3529 13.5688L47.6773 12.5185C43.8756 6.60672 37.4264 3.07715 30.4274 3.07715C19.1166 3.07715 9.91457 12.2792 9.91457 23.59C9.91457 23.6201 9.9173 23.6488 9.9173 23.6789C12.9641 24.0645 15.7402 25.7192 17.5235 28.2751L15.2794 29.8409C13.745 27.6392 11.226 26.325 8.54705 26.325C4.02192 26.325 0.341919 30.005 0.341919 34.5301C0.341919 38.6737 3.43252 42.1007 7.42842 42.6505C7.27936 42.1623 7.17953 41.6577 7.17953 41.1325C7.17953 38.2471 9.52893 35.8977 12.4144 35.8977C13.812 35.8977 15.1276 36.4419 16.1163 37.4307L21.4209 42.7353H29.1542C29.8312 37.3472 34.4315 33.1626 40 33.1626C45.5686 33.1626 50.1689 37.3472 50.8459 42.7353H58.5792L63.8838 37.4307C64.8712 36.4419 66.1867 35.8977 67.5857 35.8977C70.4712 35.8977 72.8206 38.2471 72.8206 41.1325C72.8206 41.6563 72.7207 42.1609 72.5717 42.6491C76.5676 42.1007 79.6582 38.6737 79.6582 34.5301C79.6582 30.005 75.9782 26.325 71.453 26.325ZM33.3881 6.05834C34.3946 6.22655 35.3929 6.48501 36.3529 6.82552L35.4421 9.4033C34.6298 9.11749 33.7874 8.90005 32.9368 8.75646L33.3881 6.05834ZM15.5925 21.0806L12.8944 20.6293C14.3358 12.044 21.7094 5.81219 30.4274 5.81219V8.54723C23.0496 8.54723 16.811 13.8177 15.5925 21.0806ZM54.6421 34.1295L52.7084 32.1958L54.4766 30.4276H25.5235L27.2917 32.1958L25.358 34.1295L20.2886 29.0601L25.358 23.9907L27.2917 25.9243L25.5235 27.6925H54.4766L52.7084 25.9243L54.6421 23.9907L59.7115 29.0601L54.6421 34.1295Z" fill="#A6AAC8"></path> <path d="M76.6591 11.5049L76.4389 10.7883C76.2434 10.1565 75.9808 9.52607 75.6567 8.91479L75.3039 8.25154L76.8492 5.54385L74.4588 3.15342L71.7511 4.69872L71.0878 4.3459C70.4766 4.0218 69.8461 3.75787 69.2143 3.56368L68.4978 3.34351L67.6731 0.341797H64.2913L63.4694 3.34077L62.7528 3.56094C62.121 3.7565 61.4906 4.01906 60.8793 4.34316L60.216 4.69598L57.5083 3.15069L55.1179 5.54111L56.6632 8.24881L56.5032 8.54966C57.563 8.55513 58.6037 8.65906 59.6157 8.84641C61.1651 6.93462 63.4803 5.81188 65.9829 5.81188C70.508 5.81188 74.188 9.49188 74.188 14.017C74.188 15.7962 73.589 17.485 72.5374 18.895C73.2622 20.4539 73.7613 22.136 74.0034 23.9015C74.3808 23.9917 74.7487 24.1025 75.1083 24.231L76.8478 22.4915L75.3025 19.7838L75.6554 19.1206C75.9795 18.5093 76.2434 17.8789 76.4376 17.2471L76.6577 16.5305L79.6581 15.7073V12.3254L76.6591 11.5049Z" fill="#A6AAC8"></path> <path d="M70.9826 16.2036C71.2821 15.5199 71.453 14.7814 71.453 14.017C71.453 11.0002 68.9997 8.54688 65.9829 8.54688C64.7453 8.54688 63.5802 8.96397 62.6353 9.69833C66.0212 10.9783 68.9286 13.2662 70.9826 16.2036Z" fill="#A6AAC8"></path> </svg> 