<?xml version="1.0" encoding="UTF-8"?> <svg xmlns="http://www.w3.org/2000/svg" width="76" height="76" viewBox="0 0 76 76" fill="none"> <path d="M20.9526 13.9613H37.2731C39.6102 8.72319 43.7201 4.48758 43.7545 4.41867C44.4101 3.80678 44.5849 2.88894 44.2353 2.05852C43.8858 1.22809 43.099 0.703613 42.2249 0.703613C38.2913 0.703613 36.1497 2.10222 34.4451 3.2386C32.9154 4.28755 31.7353 5.07427 29.1129 5.07427C26.4905 5.07427 25.3105 4.28755 23.7807 3.2386C22.0762 2.10222 19.9345 0.703613 16.0009 0.703613C15.1268 0.703613 14.3401 1.22809 13.9904 2.05852C13.6408 2.88894 13.8156 3.80678 14.4712 4.41867C14.5057 4.48758 18.6155 8.72319 20.9526 13.9613Z" fill="#A6AAC8"></path> <path d="M44.5559 68.7405V73.1112C44.5559 74.318 45.5344 75.2965 46.7412 75.2965H73.1109C74.3178 75.2965 75.2962 74.318 75.2962 73.1112V68.7405C75.2962 67.5336 74.3178 66.5552 73.1109 66.5552H46.7412C45.5344 66.5552 44.5559 67.5336 44.5559 68.7405Z" fill="#A6AAC8"></path> <path d="M75.2962 59.9989V55.6282C75.2962 54.4213 74.3178 53.4429 73.1109 53.4429H46.7412C45.5344 53.4429 44.5559 54.4213 44.5559 55.6282V59.9989C44.5559 61.2057 45.5344 62.1842 46.7412 62.1842H73.1109C74.3178 62.1842 75.2962 61.2057 75.2962 59.9989Z" fill="#A6AAC8"></path> <path d="M44.2792 36.0478C39.996 31.8519 36.4994 28.2971 35.8001 22.7027H37.8543C39.0781 22.7027 40.0397 21.7411 40.0397 20.5174C40.0397 19.2936 39.0781 18.332 37.8543 18.332H20.3717C19.1479 18.332 18.1864 19.2936 18.1864 20.5174C18.1864 21.7411 19.1479 22.7027 20.3717 22.7027H22.4259C21.7266 28.2971 18.2301 31.8519 13.9468 36.0478C7.7405 42.123 0.703735 49.0286 0.703735 64.8067C0.791149 70.576 5.72999 75.2963 11.6304 75.2963H40.4418C40.197 74.6101 40.0397 73.8802 40.0397 73.111V55.6283C40.0397 52.0138 42.9811 49.0723 46.5957 49.0723H54.4235C51.7793 43.405 47.8573 39.5589 44.2792 36.0478ZM29.113 49.0723C32.7281 49.0723 35.669 52.0132 35.669 55.6283C35.669 58.4736 33.8365 60.8766 31.2984 61.7818V64.3696C31.2984 65.5775 30.3209 66.555 29.113 66.555C27.9051 66.555 26.9277 65.5775 26.9277 64.3696V61.7818C24.3895 60.8768 22.557 58.4736 22.557 55.6283C22.557 54.4204 23.5345 53.443 24.7424 53.443C25.9503 53.443 26.9277 54.4204 26.9277 55.6283C26.9277 56.834 27.9073 57.8137 29.113 57.8137C30.3187 57.8137 31.2984 56.834 31.2984 55.6283C31.2984 54.4226 30.3187 53.443 29.113 53.443C25.4979 53.443 22.557 50.5021 22.557 46.887C22.557 44.0417 24.3895 41.6387 26.9277 40.7336V38.1457C26.9277 36.9378 27.9051 35.9604 29.113 35.9604C30.3209 35.9604 31.2984 36.9378 31.2984 38.1457V40.7336C33.8365 41.6386 35.669 44.0417 35.669 46.887C35.669 48.0949 34.6916 49.0723 33.4837 49.0723C32.2758 49.0723 31.2984 48.0949 31.2984 46.887C31.2984 45.6813 30.3187 44.7017 29.113 44.7017C27.9073 44.7017 26.9277 45.6813 26.9277 46.887C26.9277 48.0927 27.9073 49.0723 29.113 49.0723Z" fill="#A6AAC8"></path> </svg> 