<?xml version="1.0" encoding="UTF-8"?> <svg xmlns="http://www.w3.org/2000/svg" width="80" height="80" viewBox="0 0 80 80" fill="none"> <path d="M74.1473 38.1773C73.2346 37.7802 72.6284 36.9799 72.4844 35.9816C72.3391 34.9754 72.6987 34.0274 73.471 33.3807C76.177 31.1148 77.0012 27.4322 75.5217 24.2169C74.0563 21.0315 70.7592 19.2772 67.3148 19.8521C66.3476 20.0134 65.4212 19.6781 64.7725 18.9324C64.1051 18.1652 63.898 17.1659 64.2042 16.1909C65.2667 12.808 63.9786 9.25829 60.9992 7.35797C58.0525 5.47836 54.336 5.80036 51.7508 8.15878C51.0197 8.82561 50.0594 9.04987 49.1153 8.77385C48.157 8.49357 47.4568 7.77208 47.1945 6.79452C46.2795 3.38592 43.3068 1.0957 39.797 1.0957C36.2874 1.0957 33.3146 3.38592 32.3996 6.79452C32.1372 7.77223 31.437 8.49372 30.4787 8.774C29.5348 9.04987 28.5745 8.82592 27.8434 8.15893C25.258 5.80051 21.5414 5.47882 18.5949 7.35813C15.6156 9.25844 14.3276 12.8082 15.39 16.191C15.6961 17.1662 15.4891 18.1655 14.8217 18.9327C14.1728 19.6785 13.2461 20.0138 12.2793 19.8524C8.83603 19.2778 5.5379 21.0318 4.07228 24.2171C2.59296 27.4323 3.41704 31.115 6.12311 33.381C6.89543 34.0275 7.25502 34.9756 7.10978 35.9818C6.96561 36.98 6.35954 37.7804 5.44686 38.1774C2.22484 39.5791 0.400242 42.8693 0.906441 46.3642C1.41081 49.847 4.08339 52.4749 7.55645 52.9031C8.53429 53.0237 9.33371 53.6132 9.74978 54.5204C10.1748 55.4474 10.0948 56.4644 9.53025 57.3106C7.56483 60.2565 7.80856 64.0276 10.1366 66.6943C12.4365 69.3289 16.0907 70.0726 19.2298 68.5447C20.1126 68.1151 21.0938 68.1725 21.9219 68.7026C22.7715 69.2464 23.2465 70.1434 23.2252 71.1633C23.1509 74.7038 25.373 77.7447 28.7549 78.7303C29.4815 78.9421 30.2139 79.0444 30.9342 79.0444C33.5437 79.0444 35.9928 77.7002 37.423 75.3472C37.9429 74.4918 38.808 74.0015 39.797 74.0015C40.7861 74.0015 41.6514 74.492 42.1712 75.3472C43.9963 78.3497 47.4801 79.7094 50.8393 78.7302C54.2212 77.7446 56.4434 74.7038 56.369 71.1632C56.3475 70.1433 56.8225 69.2463 57.6723 68.7024C58.5002 68.1726 59.4815 68.1148 60.3645 68.5446C63.5033 70.0725 67.1575 69.3288 69.4577 66.6942C71.7859 64.0273 72.0296 60.2562 70.0641 57.3103C69.4996 56.4641 69.4196 55.4471 69.8445 54.5203C70.2605 53.613 71.0599 53.0234 72.0379 52.9028C75.5109 52.4746 78.1833 49.8468 78.6879 46.3641C79.1938 42.8693 77.3692 39.5791 74.1473 38.1773ZM32.4895 23.0186C35.1758 23.0186 37.3612 25.2041 37.3612 27.8904C37.3612 30.5768 35.1758 32.7622 32.4895 32.7622C29.8032 32.7622 27.6178 30.5768 27.6178 27.8904C27.6178 25.2041 29.8032 23.0186 32.4895 23.0186ZM47.1045 57.1214C44.4183 57.1214 42.2328 54.9359 42.2328 52.2495C42.2328 49.5632 44.4183 47.3777 47.1045 47.3777C49.7908 47.3777 51.9762 49.5632 51.9762 52.2495C51.9762 54.9359 49.7907 57.1214 47.1045 57.1214ZM53.6985 29.6129L29.3401 53.972C28.8645 54.4478 28.241 54.6856 27.6178 54.6856C26.9945 54.6856 26.3711 54.4478 25.8955 53.972C24.9441 53.0208 24.9441 51.4784 25.8955 50.5272L50.2539 26.1681C51.2051 25.2167 52.7475 25.2167 53.6987 26.1681C54.6499 27.1193 54.6499 28.6617 53.6985 29.6129Z" fill="#A6AAC8"></path> </svg> 