<?xml version="1.0" encoding="UTF-8"?> <svg xmlns="http://www.w3.org/2000/svg" width="80" height="80" viewBox="0 0 80 80" fill="none"> <path d="M20.4078 0.660889C18.8498 0.660889 17.5868 1.92386 17.5868 3.48188V9.1237H23.2286V3.48188C23.2286 1.92386 21.9656 0.660889 20.4078 0.660889Z" fill="#A6AAC8"></path> <path d="M59.9008 0.660889C58.3428 0.660889 57.0798 1.92386 57.0798 3.48188V9.1237H62.7217V3.48188C62.7218 1.92386 61.4588 0.660889 59.9008 0.660889Z" fill="#A6AAC8"></path> <path d="M71.1846 9.12427H62.7218V20.4081C62.7218 21.9661 61.4588 23.2291 59.9008 23.2291C58.3428 23.2291 57.0798 21.9661 57.0798 20.4081V9.12427H23.2286V20.4081C23.2286 21.9661 21.9656 23.2291 20.4076 23.2291C18.8496 23.2291 17.5866 21.9661 17.5866 20.4081V9.12427H9.12394C4.45006 9.12427 0.661133 12.9132 0.661133 17.5871V71.1849C0.661133 75.8588 4.45006 79.6477 9.12394 79.6477H71.1846C75.8585 79.6477 79.6474 75.8588 79.6474 71.1849V17.5871C79.6474 12.9132 75.8585 9.12427 71.1846 9.12427ZM74.0054 71.1849C74.0054 72.7429 72.7425 74.0059 71.1844 74.0059H9.12394C7.56593 74.0059 6.30295 72.7429 6.30295 71.1849V34.5127H74.0054V71.1849Z" fill="#A6AAC8"></path> <path d="M23.2286 40.1543H17.5867C16.0287 40.1543 14.7657 41.4173 14.7657 42.9753C14.7657 44.5333 16.0287 45.7963 17.5867 45.7963H23.2286C24.7866 45.7963 26.0495 44.5333 26.0495 42.9753C26.0495 41.4173 24.7866 40.1543 23.2286 40.1543Z" fill="#A6AAC8"></path> <path d="M42.9753 40.1543H37.3334C35.7754 40.1543 34.5125 41.4173 34.5125 42.9753C34.5125 44.5333 35.7754 45.7963 37.3334 45.7963H42.9753C44.5333 45.7963 45.7963 44.5333 45.7963 42.9753C45.7963 41.4173 44.5333 40.1543 42.9753 40.1543Z" fill="#A6AAC8"></path> <path d="M62.7218 40.1543H57.08C55.522 40.1543 54.259 41.4173 54.259 42.9753C54.259 44.5333 55.522 45.7963 57.08 45.7963H62.7218C64.2799 45.7963 65.5428 44.5333 65.5428 42.9753C65.5428 41.4173 64.2797 40.1543 62.7218 40.1543Z" fill="#A6AAC8"></path> <path d="M23.2286 51.4379H17.5867C16.0287 51.4379 14.7657 52.7008 14.7657 54.2589C14.7657 55.8169 16.0287 57.0799 17.5867 57.0799H23.2286C24.7866 57.0799 26.0495 55.8169 26.0495 54.2589C26.0495 52.7008 24.7866 51.4379 23.2286 51.4379Z" fill="#A6AAC8"></path> <path d="M42.9753 51.4379H37.3334C35.7754 51.4379 34.5125 52.7008 34.5125 54.2589C34.5125 55.8169 35.7754 57.0799 37.3334 57.0799H42.9753C44.5333 57.0799 45.7963 55.8169 45.7963 54.2589C45.7963 52.7008 44.5333 51.4379 42.9753 51.4379Z" fill="#A6AAC8"></path> <path d="M62.7218 51.4379H57.08C55.522 51.4379 54.259 52.7008 54.259 54.2589C54.259 55.8169 55.522 57.0799 57.08 57.0799H62.7218C64.2799 57.0799 65.5428 55.8169 65.5428 54.2589C65.5427 52.7008 64.2797 51.4379 62.7218 51.4379Z" fill="#A6AAC8"></path> <path d="M23.2286 62.7219H17.5867C16.0287 62.7219 14.7657 63.9849 14.7657 65.5429C14.7657 67.1009 16.0287 68.3637 17.5867 68.3637H23.2286C24.7866 68.3637 26.0495 67.1008 26.0495 65.5427C26.0495 63.9847 24.7866 62.7219 23.2286 62.7219Z" fill="#A6AAC8"></path> <path d="M42.9753 62.7219H37.3334C35.7754 62.7219 34.5125 63.9849 34.5125 65.5429C34.5125 67.1009 35.7754 68.3639 37.3334 68.3639H42.9753C44.5333 68.3639 45.7963 67.1009 45.7963 65.5429C45.7963 63.9849 44.5333 62.7219 42.9753 62.7219Z" fill="#A6AAC8"></path> <path d="M62.7218 62.7219H57.08C55.522 62.7219 54.259 63.9849 54.259 65.5429C54.259 67.1009 55.522 68.3639 57.08 68.3639H62.7218C64.2799 68.3639 65.5428 67.1009 65.5428 65.5429C65.5428 63.9849 64.2797 62.7219 62.7218 62.7219Z" fill="#A6AAC8"></path> </svg> 