<?xml version="1.0" encoding="UTF-8"?> <svg xmlns="http://www.w3.org/2000/svg" width="80" height="80" viewBox="0 0 80 80" fill="none"> <path fill-rule="evenodd" clip-rule="evenodd" d="M40 75.2381C59.4615 75.2381 75.2381 59.4615 75.2381 40C75.2381 20.5386 59.4615 4.76193 40 4.76193C20.5386 4.76193 4.76193 20.5386 4.76193 40C4.76193 59.4615 20.5386 75.2381 40 75.2381ZM40 78.0953C61.0394 78.0953 78.0953 61.0394 78.0953 40C78.0953 18.9606 61.0394 1.90479 40 1.90479C18.9606 1.90479 1.90479 18.9606 1.90479 40C1.90479 61.0394 18.9606 78.0953 40 78.0953Z" fill="#A6AAC8"></path> <path d="M56.4425 47.0269C56.6305 45.9607 55.8117 44.9369 53.986 43.9554L53.0413 49.3128C53.9911 49.2879 54.7595 49.0661 55.3465 48.6474C55.9644 48.2067 56.3297 47.6665 56.4425 47.0269Z" fill="#A6AAC8"></path> <path d="M49.1663 33.3769C48.9924 34.3631 49.7753 35.2844 51.515 36.1408L52.375 31.2632C51.4918 31.2174 50.759 31.3905 50.1767 31.7825C49.6253 32.1525 49.2885 32.6839 49.1663 33.3769Z" fill="#A6AAC8"></path> <path fill-rule="evenodd" clip-rule="evenodd" d="M73.3334 40C73.3334 58.4095 58.4095 73.3334 40 73.3334C21.5905 73.3334 6.66669 58.4095 6.66669 40C6.66669 21.5905 21.5905 6.66669 40 6.66669C58.4095 6.66669 73.3334 21.5905 73.3334 40ZM47.7858 57.2903L48.4202 53.6921C44.6568 52.6712 41.8101 50.7402 39.8802 47.899L43.6671 44.1146C45.067 46.2852 46.9475 47.7985 49.3085 48.6546L50.4223 42.3377C49.4954 41.9269 48.7102 41.5549 48.0667 41.2215C47.4541 40.8662 46.7663 40.4014 46.0032 39.8271C45.271 39.2308 44.7008 38.6356 44.2923 38.0414C43.8886 37.4206 43.5893 36.667 43.3945 35.7807C43.2043 34.8678 43.2009 33.8915 43.3842 32.8521C43.7508 30.7731 44.8253 29.1213 46.6078 27.8966C48.3951 26.6452 50.6088 26.1149 53.2492 26.3057L53.9048 22.5875L57.6377 23.2457L56.968 27.0438C60.0503 27.9446 62.5 29.5995 64.3171 32.0085L60.4797 35.6191C59.3385 34.1262 57.8671 32.9736 56.0656 32.1613L55.0716 37.7985C55.9986 38.2093 56.7814 38.5946 57.4202 38.9546C58.059 39.3146 58.7445 39.7927 59.4766 40.389C60.2397 40.9633 60.8231 41.5608 61.2268 42.1817C61.6567 42.8071 61.9667 43.5763 62.1569 44.4893C62.3779 45.3802 62.3968 46.3454 62.2135 47.3849C61.8093 49.6771 60.7398 51.4535 59.005 52.714C57.2702 53.9746 54.9886 54.5067 52.1601 54.3103L51.5186 57.9485L47.7858 57.2903ZM22.3795 54.9326C24.2757 56.1259 26.8587 56.4343 30.1287 55.8577C31.844 55.5552 33.4232 55.1071 34.8661 54.5132C36.309 53.9193 37.5559 53.2326 38.6068 52.4532L37.6924 47.2677C36.4003 48.0896 35.0888 48.8018 33.758 49.4042C32.4223 49.9792 31.0308 50.3943 29.5834 50.6495C28.1897 50.8953 27.096 50.8052 26.3024 50.3794C25.5039 49.9261 25.0152 49.1918 24.8362 48.1767C24.6813 47.2987 24.8054 46.513 25.2082 45.8196L38.958 43.3951L38.421 40.3497L30.0987 41.8171C30.8887 41.2818 31.647 40.7237 32.3737 40.1429C33.0955 39.5347 33.6908 38.8357 34.1595 38.0458L37.8985 37.3865L37.3615 34.341L35.3111 34.7026C35.3852 33.8691 35.3473 33.0271 35.1973 32.1765C34.7329 29.5426 33.5488 27.6862 31.6452 26.6074C29.7635 25.4964 27.4289 25.1867 24.6414 25.6782C22.9528 25.9759 21.3785 26.4516 19.9185 27.1051C18.4804 27.7264 17.1202 28.4755 15.8377 29.3523L18.5032 33.8896C19.7466 33.1045 20.8777 32.4666 21.8966 31.9757C22.9423 31.4802 24.0012 31.1379 25.0733 30.9488C26.2526 30.7409 27.194 30.8295 27.8976 31.2146C28.6279 31.5951 29.0705 32.2243 29.2253 33.1023C29.414 34.1723 29.218 35.098 28.6372 35.8793L15.209 38.2471L15.746 41.2926L23.224 39.974C22.4657 40.5321 21.795 41.1171 21.212 41.7291C20.6291 42.3411 20.1471 42.9778 19.7663 43.639L16.2685 44.2557L16.8055 47.3012L18.7755 46.9539C18.704 47.6454 18.7408 48.4028 18.886 49.2259C19.3456 51.8323 20.5101 53.7346 22.3795 54.9326Z" fill="#A6AAC8"></path> </svg> 