<?xml version="1.0" encoding="UTF-8"?> <svg xmlns="http://www.w3.org/2000/svg" width="512" height="529" viewBox="0 0 512 529" fill="none"> <path d="M212.355 480.306C207.685 479.203 204.79 474.518 205.893 469.849L209.365 455.146C210.603 449.901 210.199 444.501 208.216 439.513L185.97 383.639C176.849 360.693 179.154 334.516 192.09 313.545L220.892 266.992C229.22 253.507 245.174 246.915 260.57 250.55L341.104 269.567C350.596 271.808 357.447 279.177 359.015 288.8C360.583 298.423 356.402 307.582 348.104 312.696C328.754 324.667 306.398 329.552 284.125 326.9C302.743 351.838 314.301 381.79 317.099 412.906C317.525 417.686 314.008 421.911 309.224 422.353C304.385 422.8 300.227 419.228 299.794 414.482C296.784 381.083 282.523 349.189 259.639 324.691L254.379 319.055C251.77 316.259 251.298 312.057 253.224 308.743C255.145 305.446 259.003 303.785 262.742 304.668L276.869 308.004C298.238 313.049 320.286 309.467 338.945 297.922C342.162 295.949 342.041 292.83 341.835 291.585C341.629 290.339 340.763 287.349 337.092 286.482L256.558 267.465C248.454 265.551 240.041 269.031 235.651 276.121L206.867 322.679C196.817 338.99 195.022 359.376 202.12 377.199L224.369 433.057C227.687 441.396 228.345 450.411 226.284 459.141L222.812 473.844C221.709 478.513 217.025 481.408 212.355 480.306V480.306Z" fill="#A6AAC8"></path> <path d="M341.91 385.219C336.175 383.864 330.715 381.039 326.13 376.705C312.174 363.568 311.518 341.532 324.66 327.559L372.337 276.942C385.491 262.989 407.544 262.338 421.479 275.488C428.246 281.856 432.124 290.47 432.398 299.751C432.667 309.05 429.313 317.885 422.95 324.635L375.273 375.252C366.46 384.585 353.618 387.983 341.91 385.219V385.219ZM338.045 364.068C345.029 370.576 356.064 370.288 362.622 363.316L410.299 312.699C413.489 309.326 415.16 304.898 415.023 300.257C414.887 295.617 412.941 291.299 409.564 288.126C402.585 281.601 391.562 281.91 384.991 288.861L337.314 339.478C330.739 346.445 331.06 357.489 338.045 364.068Z" fill="#A6AAC8"></path> <path d="M297.005 356.699C291.269 355.345 285.797 352.499 281.232 348.152C272.438 339.931 268.567 327.353 271.143 315.386C272.161 310.696 276.777 307.714 281.471 308.715L281.64 308.755C286.242 309.842 289.144 314.421 288.142 319.043C286.842 325.077 288.763 331.389 293.168 335.502C300.248 342.211 311.046 341.867 317.818 334.749L365.433 284.242C367.546 282.026 368.957 279.377 369.68 276.314C371.119 270.224 369.236 263.974 364.655 259.623C357.645 253.074 346.606 253.379 340.115 260.366L322.919 278.651C319.625 282.161 314.141 282.312 310.624 279.053C307.132 275.763 306.946 270.271 310.24 266.762L327.415 248.49C340.405 234.552 362.453 233.846 376.557 246.965C385.601 255.567 389.415 268.31 386.582 280.305C385.168 286.295 382.208 291.794 378.045 296.188L330.409 346.707C321.513 356.092 308.679 359.456 297.005 356.699Z" fill="#A6AAC8"></path> <path d="M379.581 421.533C373.845 420.178 368.386 417.353 363.783 413.015L363.779 413.032C357.017 406.648 353.138 398.034 352.865 388.752C352.596 379.454 355.95 370.618 362.313 363.868L395.971 328.143C409.125 314.19 431.178 313.539 445.114 326.689C451.88 333.057 455.759 341.671 456.032 350.952C456.301 360.251 452.947 369.087 446.584 375.836L412.926 411.562C404.105 420.929 391.272 424.293 379.581 421.533ZM425.283 335.1C419.429 333.718 413.013 335.4 408.604 340.075L374.964 375.804C371.774 379.177 370.103 383.606 370.239 388.246C370.376 392.887 372.322 397.205 375.699 400.378C382.708 406.927 393.697 406.611 400.272 399.643L433.93 363.917C437.12 360.544 438.79 356.116 438.654 351.475C438.517 346.834 436.571 342.517 433.195 339.344C430.898 337.194 428.16 335.779 425.283 335.1V335.1Z" fill="#A6AAC8"></path> <path d="M312.052 280.569C307.383 279.466 304.488 274.782 305.586 270.129L341.39 117.823C343.595 108.483 337.792 99.0929 328.453 96.8876C319.114 94.6824 309.723 100.485 307.518 109.824L271.498 261.687C270.395 266.356 265.711 269.251 261.041 268.148C256.371 267.046 253.48 262.344 254.583 257.674L290.607 105.795C295.031 87.1379 313.787 75.5621 332.448 79.9687C351.11 84.3753 362.706 103.118 358.317 121.784L322.513 274.09C321.428 278.764 316.739 281.676 312.052 280.569Z" fill="#A6AAC8"></path> <path d="M360.417 515.25C355.747 514.147 352.852 509.463 353.955 504.793L357.071 491.596C359.412 481.682 365.149 472.891 373.208 466.827L380.395 461.504C401.951 445.41 415.719 420.688 418.153 393.666L419.235 382.275C419.682 377.504 423.921 374.004 428.708 374.456C433.466 374.882 436.996 379.146 436.528 383.929L435.454 395.286C432.586 427.172 416.284 456.421 390.765 475.456L383.582 480.762C378.805 484.35 375.383 489.615 373.973 495.587L370.857 508.784C369.771 513.458 365.086 516.353 360.417 515.25V515.25Z" fill="#A6AAC8"></path> <path fill-rule="evenodd" clip-rule="evenodd" d="M244.083 95.7728L257.448 77.4749C260.054 73.9075 259.275 68.9032 255.708 66.2968L244.265 57.9348C240.697 55.3277 235.691 56.1069 233.085 59.6752L218.459 79.698C195.215 68.1237 169.363 62.7857 143.435 64.2068L138.676 33.6488L160.584 30.2363C164.949 29.5563 167.937 25.466 167.257 21.1004L165.076 7.09705C164.396 2.73141 160.306 -0.25639 155.94 0.423609L82.3111 11.8922C77.9455 12.5721 74.9577 16.6624 75.6377 21.0281L77.8189 35.0314C78.4989 39.3971 82.5892 42.3849 86.9548 41.7049L108.863 38.2924L113.623 68.8505C88.4911 75.3824 65.4873 88.3303 46.8646 106.426L26.8417 91.8C23.2735 89.1935 18.2678 89.9737 15.662 93.5424L7.30404 104.989C4.69886 108.556 5.47876 113.561 9.04612 116.166L27.3441 129.532C10.6469 153.817 1.42817 182.46 0.826388 211.925C0.224602 241.389 8.26611 270.385 23.9578 295.331C39.6496 320.277 62.3042 340.081 89.1242 352.296C112.088 362.756 137.244 367.26 162.282 365.492C161.162 354.275 163.765 344.683 166 340C166.889 338.357 167.922 336.431 169.072 334.269C145.847 337.661 122.128 334.208 100.823 324.32C79.1716 314.271 60.986 298.027 48.5661 277.643C36.1462 257.259 30.0499 233.649 31.048 209.8C32.0462 185.951 40.0941 162.933 54.1739 143.658C68.2537 124.383 87.7331 109.716 110.149 101.511C132.564 93.3067 156.91 91.9335 180.106 97.5652C203.302 103.197 224.307 115.581 240.465 133.15C250.399 143.952 258.226 156.415 263.636 169.895L274.019 126.766C265.619 115.117 255.554 104.665 244.083 95.7728ZM239.22 237.682C240.837 231.482 241.798 225.098 242.069 218.632C242.817 200.745 238.245 183.038 228.93 167.75C219.615 152.461 205.976 140.279 189.737 132.742C174.407 125.627 157.409 122.954 140.672 124.996C139.027 125.197 137.907 126.736 138.162 128.373L151.17 211.883C151.425 213.52 150.304 215.054 148.667 215.309L65.1574 228.316C63.5202 228.571 62.3948 230.106 62.7039 231.734C65.8495 248.3 73.5651 263.679 85.0058 276.119C97.1243 289.297 112.878 298.584 130.275 302.808C147.672 307.032 165.931 306.002 182.743 299.849C184.445 299.226 186.125 298.553 187.78 297.832C193.476 286.343 199.237 274.296 204 263.5C213.342 242.326 228.541 237.352 239.22 237.682Z" fill="#A6AAC8"></path> </svg> 