<?xml version="1.0" encoding="UTF-8"?> <svg xmlns="http://www.w3.org/2000/svg" width="34" height="34" viewBox="0 0 34 34" fill="none"> <path d="M17.8281 18.6914C17.7698 18.6788 17.71 18.6765 17.651 18.6853C17.0594 18.6165 16.6131 18.1159 16.612 17.5205C16.612 17.2352 16.3807 17.0038 16.0954 17.0038C15.81 17.0038 15.5787 17.2352 15.5787 17.5205C15.5802 18.5148 16.2452 19.3857 17.2039 19.6488V20.1655C17.2039 20.4509 17.4353 20.6822 17.7206 20.6822C18.006 20.6822 18.2373 20.4509 18.2373 20.1655V19.6801C19.3438 19.4485 20.0959 18.4179 19.9796 17.2935C19.8631 16.169 18.9157 15.3145 17.7852 15.3142C17.1373 15.3142 16.612 14.789 16.612 14.1411C16.612 13.4932 17.1373 12.9679 17.7852 12.9679C18.4331 12.9679 18.9583 13.4932 18.9583 14.1411C18.9583 14.4264 19.1897 14.6578 19.475 14.6578C19.7604 14.6578 19.9917 14.4264 19.9917 14.1411C19.9902 13.0971 19.2588 12.1967 18.2373 11.9812V11.511C18.2373 11.2256 18.006 10.9943 17.7206 10.9943C17.4353 10.9943 17.2039 11.2256 17.2039 11.511V12.0128C16.1377 12.3039 15.4515 13.3391 15.5983 14.4345C15.7452 15.5299 16.6799 16.3476 17.7852 16.3474C18.4245 16.3474 18.946 16.8593 18.9576 17.4983C18.9695 18.1374 18.4669 18.6682 17.8281 18.6914Z" fill="#34538A"></path> <path d="M10.2925 15.8705C10.2925 20.0085 13.6469 23.363 17.785 23.363C21.9231 23.363 25.2775 20.0085 25.2775 15.8705C25.2775 11.7324 21.9231 8.37793 17.785 8.37793C13.649 8.38247 10.2973 11.7344 10.2925 15.8705ZM17.785 9.41131C21.3524 9.41131 24.2441 12.3031 24.2441 15.8705C24.2441 19.4378 21.3524 22.3296 17.785 22.3296C14.2176 22.3296 11.3259 19.4378 11.3259 15.8705C11.3299 12.3048 14.2194 9.41535 17.785 9.41131Z" fill="#34538A"></path> <path d="M27.8244 24.6368L23.7769 26.5491C23.2181 25.5097 22.1461 24.8482 20.9664 24.8149L17.23 24.7122C16.6384 24.6953 16.0579 24.5454 15.5318 24.2737L15.1516 24.0767C13.205 23.062 10.8846 23.0645 8.93999 24.0832L8.96371 23.2219C8.97153 22.9366 8.74674 22.6989 8.4614 22.6911L4.3642 22.5783C4.07886 22.5705 3.84145 22.7953 3.83363 23.0806L3.58614 32.0718C3.57831 32.3571 3.80311 32.5948 4.08845 32.6026L8.18564 32.7154H8.19977C8.47981 32.7154 8.70889 32.4926 8.71646 32.2128L8.72832 31.7826L9.79273 31.2127C10.2105 30.9879 10.699 30.9344 11.1554 31.0636L17.5116 32.8476C17.5227 32.8508 17.5338 32.8534 17.5451 32.8559C18.0045 32.952 18.4728 33.0002 18.942 32.9999C19.9361 33.0004 20.9185 32.7862 21.8219 32.3715C21.8441 32.3614 21.8656 32.3495 21.886 32.3362L31.1019 26.375C31.3315 26.2264 31.4057 25.925 31.2712 25.6868C30.587 24.4728 29.0695 24.0103 27.8244 24.6368ZM4.63339 31.5838L4.85238 23.6256L7.91645 23.7098L7.69746 31.6684L4.63339 31.5838ZM21.3565 31.4486C20.234 31.9552 18.9804 32.095 17.7739 31.8485L11.4349 30.0691C10.7214 29.8675 9.95773 29.951 9.30506 30.3019L8.76112 30.5933L8.90669 25.3021C10.6303 24.1556 12.8409 24.0378 14.6766 24.9943L15.0568 25.1913C15.7213 25.5344 16.4542 25.7236 17.2017 25.7453L20.9384 25.848C21.9879 25.8783 22.8793 26.6256 23.0922 27.6539L17.5264 27.5003C17.2411 27.4924 17.0037 27.7175 16.9956 28.0026C16.9878 28.2879 17.2128 28.5256 17.4979 28.5334L23.6402 28.7024H23.6546C23.9344 28.7022 24.1632 28.4794 24.1708 28.1999C24.1771 27.9753 24.1604 27.7505 24.1208 27.5295L28.2723 25.568C28.2763 25.5662 28.2803 25.5642 28.2844 25.5622C28.8732 25.2642 29.5852 25.3639 30.0696 25.8122L21.3565 31.4486Z" fill="#34538A"></path> <path d="M18.3019 6.92525V2.01669C18.3019 1.73135 18.0706 1.5 17.7852 1.5C17.4999 1.5 17.2686 1.73135 17.2686 2.01669V6.92525C17.2686 7.2106 17.4999 7.44195 17.7852 7.44195C18.0706 7.44195 18.3019 7.2106 18.3019 6.92525Z" fill="#34538A"></path> <path d="M22.1769 6.9253V4.60019C22.1769 4.31485 21.9456 4.0835 21.6602 4.0835C21.3749 4.0835 21.1436 4.31485 21.1436 4.60019V6.9253C21.1436 7.21064 21.3749 7.44199 21.6602 7.44199C21.9456 7.44199 22.1769 7.21064 22.1769 6.9253Z" fill="#34538A"></path> <path d="M14.4264 6.9253V4.60019C14.4264 4.31485 14.1951 4.0835 13.9098 4.0835C13.6244 4.0835 13.3931 4.31485 13.3931 4.60019V6.9253C13.3931 7.21064 13.6244 7.44199 13.9098 7.44199C14.1951 7.44199 14.4264 7.21064 14.4264 6.9253Z" fill="#34538A"></path> </svg> 