<?xml version="1.0" encoding="UTF-8"?> <svg xmlns="http://www.w3.org/2000/svg" width="34" height="34" viewBox="0 0 34 34" fill="none"> <path d="M29.727 22.2974L29.439 21.8482C29.303 21.6359 29.0205 21.5741 28.8083 21.7101C28.596 21.8462 28.5342 22.1286 28.6702 22.3409L28.9583 22.7902C29.077 22.9754 29.1111 23.1945 29.0542 23.4072C28.9972 23.6201 28.858 23.7932 28.6624 23.8944L26.9102 24.7998C26.3268 25.1018 25.9697 25.7208 26.0005 26.3762L26.0918 28.3464C26.1021 28.5661 26.0221 28.7728 25.8666 28.9285C25.7108 29.0844 25.5039 29.1647 25.2835 29.1546L23.3144 29.0627C22.6572 29.0314 22.0385 29.3894 21.7375 29.9731L20.8316 31.7246C20.7306 31.9201 20.5579 32.0592 20.3454 32.1162C20.1324 32.1733 19.9129 32.1392 19.7274 32.0203L18.0675 30.9563C17.5146 30.6016 16.8002 30.6017 16.2476 30.9563L14.5876 32.0203C14.4019 32.1392 14.1825 32.1732 13.9695 32.1162C13.757 32.0592 13.5843 31.9201 13.4832 31.7244L12.5776 29.9736C12.2764 29.3894 11.6572 29.0314 11.0007 29.0627L9.03157 29.1545C8.8106 29.1651 8.60406 29.0844 8.44829 28.9285C8.2927 28.7728 8.21277 28.5661 8.22312 28.3461L8.31443 26.3764C8.34517 25.7207 7.98809 25.1018 7.40445 24.7995L5.65278 23.8945C5.45696 23.7932 5.31774 23.6201 5.26076 23.4072C5.20385 23.1945 5.23794 22.9754 5.3567 22.7902L6.42148 21.1301C6.7757 20.5772 6.7757 19.8627 6.42136 19.3097L5.35682 17.6498C5.23788 17.4642 5.20379 17.2446 5.26095 17.0318C5.31798 16.8192 5.45702 16.6465 5.65266 16.5455L7.40439 15.6398C7.98803 15.3384 8.34529 14.7197 8.31449 14.0637L8.22312 12.0935C8.21277 11.8739 8.29276 11.6672 8.44829 11.5114C8.60412 11.3555 8.81054 11.275 9.03138 11.2854L11.0011 11.3773C11.6583 11.407 12.2763 11.0498 12.5774 10.4668L13.4833 8.71527C13.5843 8.51981 13.757 8.38071 13.9695 8.32368C14.1825 8.26646 14.4019 8.30067 14.5875 8.41955L16.2474 9.48354C16.721 9.78735 17.3127 9.83002 17.8201 9.6135C17.7074 10.1084 17.577 10.6253 17.4265 11.1587C17.3371 11.1561 17.2475 11.1544 17.1574 11.1544C15.6319 11.1544 14.1234 11.5406 12.7949 12.2713C12.574 12.3928 12.4934 12.6705 12.6149 12.8914C12.7364 13.1123 13.014 13.1929 13.235 13.0714C14.4281 12.415 15.7835 12.0679 17.1547 12.0675C17.0251 12.4777 16.8836 12.8953 16.7287 13.3184C16.642 13.5552 16.7636 13.8174 17.0004 13.9042C17.0522 13.9231 17.1052 13.9321 17.1574 13.9321C17.3435 13.9321 17.5184 13.8174 17.5861 13.6324C17.7719 13.125 17.9405 12.6199 18.0935 12.1215C22.1493 12.5873 25.3096 16.0411 25.3096 20.2196C25.3096 22.3468 24.495 24.3601 23.0159 25.8884C22.8406 26.0696 22.8453 26.3586 23.0265 26.534C23.1152 26.6198 23.2296 26.6625 23.3439 26.6625C23.4633 26.6625 23.5825 26.616 23.6721 26.5234C25.3169 24.8239 26.2227 22.5851 26.2227 20.2196C26.2227 15.6258 22.7879 11.8195 18.3517 11.2331C18.5692 10.4426 18.7477 9.67687 18.8928 8.9545L19.7273 8.41955C19.9129 8.30061 20.1324 8.26652 20.3453 8.32361C20.5579 8.38065 20.7306 8.51968 20.8317 8.71539L21.7373 10.4665C22.0385 11.0497 22.6571 11.4073 23.3142 11.3772L25.2833 11.2853C25.5041 11.2746 25.7107 11.3554 25.8666 11.5113C26.0221 11.667 26.1021 11.8737 26.0917 12.0937L26.0004 14.0633C25.9696 14.7195 26.3269 15.3382 26.9103 15.6396L28.6624 16.5455C28.8579 16.6465 28.997 16.8191 29.054 17.0317C29.1111 17.2446 29.077 17.4641 28.9582 17.6496L27.8929 19.3105C27.7229 19.577 27.6307 19.8843 27.6265 20.1988C27.6232 20.451 27.8248 20.6581 28.0769 20.6615H28.0832C28.3324 20.6615 28.5362 20.461 28.5396 20.211C28.5415 20.0664 28.5841 19.9248 28.6622 19.8024L29.727 18.1423C29.9824 17.7435 30.0587 17.2524 29.9359 16.7951C29.8133 16.338 29.5019 15.9513 29.0817 15.7342L27.3296 14.8283C27.0622 14.6903 26.8985 14.4068 26.9126 14.1058L27.0039 12.1363C27.0262 11.6637 26.8471 11.2007 26.5126 10.8659C26.1777 10.5308 25.7141 10.3508 25.241 10.3731L23.2722 10.465C22.9709 10.4787 22.6868 10.3148 22.5486 10.0472L21.643 8.2961C21.4259 7.87572 21.0391 7.56423 20.582 7.44163C20.1247 7.31898 19.6337 7.39513 19.2348 7.65073L19.116 7.72688C19.3698 6.16477 19.4589 4.90399 19.4589 4.19001C19.4588 2.92113 18.4265 1.88879 17.1575 1.88879C15.8886 1.88879 14.8563 2.92113 14.8563 4.19007C14.8563 4.84251 14.8567 5.97546 15.3286 7.80991L15.0804 7.65079C14.6816 7.39525 14.1906 7.31904 13.7332 7.44176C13.2761 7.56435 12.8894 7.87584 12.6723 8.29598L11.7664 10.0475C11.6283 10.3149 11.3447 10.4789 11.0435 10.465L9.07399 10.3731C8.60126 10.3517 8.13735 10.5308 7.80255 10.866C7.468 11.2007 7.28897 11.6638 7.31119 12.136L7.40256 14.1061C7.41662 14.4068 7.253 14.6903 6.9854 14.8284L5.23356 15.7342C4.81317 15.9514 4.50175 16.3381 4.37915 16.7952C4.25643 17.2525 4.33264 17.7436 4.58825 18.1425L5.65278 19.8024C5.81525 20.056 5.81525 20.3838 5.6529 20.6373L4.58825 22.2974C4.33283 22.6955 4.25655 23.1861 4.37885 23.6432C4.50126 24.1006 4.81268 24.4879 5.23349 24.7056L6.98504 25.6105C7.25275 25.7491 7.41656 26.033 7.4025 26.3339L7.31119 28.3035C7.28891 28.776 7.468 29.2391 7.80249 29.5739C8.13729 29.9089 8.60059 30.0885 9.07412 30.0666L11.0435 29.9747C11.3448 29.9605 11.6283 30.1245 11.7665 30.3925L12.6722 32.1436C12.8893 32.564 13.276 32.8755 13.7331 32.9981C14.1906 33.1207 14.6815 33.0446 15.0804 32.789L16.7406 31.7248C16.9939 31.5623 17.3213 31.5623 17.5747 31.7248L19.2348 32.789C19.5087 32.9645 19.826 33.0553 20.1461 33.0553C20.2921 33.0553 20.4387 33.0364 20.582 32.998C21.0391 32.8754 21.4259 32.564 21.6429 32.1438L22.549 30.392C22.6869 30.1243 22.9706 29.9608 23.2718 29.9746L25.2413 30.0666C25.7144 30.0885 26.1779 29.9088 26.5127 29.5737C26.8473 29.2389 27.0263 28.7759 27.0041 28.3037L26.9127 26.3336C26.8986 26.033 27.0625 25.7491 27.3298 25.6107L29.082 24.7054C29.5026 24.4878 29.814 24.1006 29.9364 23.6432C30.0586 23.1861 29.9823 22.6955 29.727 22.2974ZM16.4864 8.54343C15.7693 6.23794 15.7694 4.90581 15.7694 4.19007C15.7694 3.4246 16.3921 2.80188 17.1575 2.80188C17.923 2.80188 18.5457 3.4246 18.5457 4.19007C18.5457 4.21649 18.5372 5.90942 18.0725 8.39575L17.5745 8.71496C17.3213 8.87743 16.9939 8.87743 16.7404 8.7149L16.489 8.55377C16.4881 8.55036 16.4875 8.54689 16.4864 8.54343Z" fill="#34538A"></path> <path d="M11.5994 14.2558C11.7839 14.0838 11.7939 13.7949 11.622 13.6105C11.4501 13.4261 11.1612 13.416 10.9768 13.5879C9.14361 15.2973 8.09229 17.7145 8.09229 20.2198C8.09229 25.2188 12.1589 29.2857 17.1576 29.2857C18.8483 29.2857 20.4978 28.817 21.9278 27.9303C22.1421 27.7974 22.2081 27.516 22.0752 27.3017C21.9424 27.0874 21.6609 27.0213 21.4466 27.1543C20.1612 27.9513 18.6781 28.3726 17.1576 28.3726C12.6625 28.3726 9.00549 24.7153 9.00549 20.2198C9.00537 17.9668 9.9509 15.793 11.5994 14.2558Z" fill="#34538A"></path> <path d="M19.0806 15.6813C18.8481 15.5837 18.5805 15.6932 18.4829 15.9256L15.0994 23.9879C15.0018 24.2204 15.1112 24.488 15.3437 24.5856C15.4014 24.6098 15.4613 24.6212 15.5202 24.6212C15.6986 24.6212 15.868 24.516 15.9413 24.3412L19.3249 16.2789C19.4224 16.0464 19.3131 15.7789 19.0806 15.6813Z" fill="#34538A"></path> <path d="M14.8725 15.2698C13.7964 15.2698 12.9209 16.254 12.9209 17.4636C12.9209 18.6733 13.7964 19.6575 14.8725 19.6575C15.9486 19.6575 16.8242 18.6733 16.8242 17.4636C16.8242 16.254 15.9486 15.2698 14.8725 15.2698ZM14.8725 18.7444C14.2999 18.7444 13.834 18.1699 13.834 17.4637C13.834 16.7575 14.2999 16.1829 14.8725 16.1829C15.4452 16.1829 15.911 16.7575 15.911 17.4637C15.911 18.1699 15.4452 18.7444 14.8725 18.7444Z" fill="#34538A"></path> <path d="M17.4907 22.9761C17.4907 24.1857 18.3662 25.1699 19.4423 25.1699C20.5184 25.1699 21.3939 24.1857 21.3939 22.9761C21.3939 21.7664 20.5184 20.7822 19.4423 20.7822C18.3662 20.7822 17.4907 21.7664 17.4907 22.9761ZM19.4423 21.6953C20.0149 21.6953 20.4808 22.2699 20.4808 22.9761C20.4808 23.6822 20.0149 24.2568 19.4423 24.2568C18.8697 24.2568 18.4038 23.6822 18.4038 22.9761C18.4038 22.2699 18.8697 21.6953 19.4423 21.6953Z" fill="#34538A"></path> </svg> 