<?xml version="1.0" encoding="UTF-8"?> <svg xmlns="http://www.w3.org/2000/svg" width="34" height="34" viewBox="0 0 34 34" fill="none"> <path d="M24.9921 8.57696L26.2964 6.30821C26.356 6.20448 26.372 6.08132 26.3408 5.96582C26.3096 5.85032 26.2338 5.75193 26.1301 5.6923L24.286 4.63295C24.1822 4.57336 24.059 4.55743 23.9435 4.58866C23.828 4.6199 23.7297 4.69573 23.6701 4.79949L22.3679 7.06592C21.1937 6.55946 19.9515 6.22816 18.6811 6.08262V4.70359H19.5964C19.716 4.70359 19.8308 4.65605 19.9154 4.57144C20 4.48683 20.0475 4.37207 20.0475 4.25241V2.12598C20.0476 2.06672 20.0359 2.00803 20.0133 1.95328C19.9906 1.89853 19.9574 1.84878 19.9155 1.80687C19.8736 1.76497 19.8238 1.73174 19.7691 1.70908C19.7143 1.68642 19.6556 1.67477 19.5964 1.6748H14.7371C14.6779 1.67477 14.6192 1.68642 14.5644 1.70908C14.5097 1.73174 14.4599 1.76497 14.418 1.80687C14.3761 1.84878 14.3429 1.89853 14.3202 1.95328C14.2976 2.00803 14.2859 2.06672 14.2859 2.12598V4.25241C14.2859 4.37207 14.3335 4.48683 14.4181 4.57144C14.5027 4.65605 14.6175 4.70359 14.7371 4.70359H15.6524V6.08134C14.3819 6.22687 13.1398 6.55817 11.9656 7.06463L10.6634 4.7982C10.6339 4.7468 10.5946 4.70172 10.5477 4.66552C10.5008 4.62933 10.4472 4.60274 10.39 4.58727C10.3328 4.5718 10.2731 4.56776 10.2143 4.57538C10.1556 4.58299 10.0989 4.60212 10.0475 4.63166L8.20338 5.69101C8.09966 5.75064 8.02388 5.84903 7.9927 5.96453C7.96151 6.08003 7.97748 6.20319 8.03709 6.30692L9.34136 8.57696C7.11252 10.2241 5.46026 12.5325 4.6199 15.1735C3.77954 17.8144 3.79393 20.6532 4.66103 23.2854C5.52813 25.9177 7.20372 28.2093 9.44915 29.8337C11.6946 31.4582 14.3953 32.3327 17.1667 32.3327C19.9382 32.3327 22.6389 31.4582 24.8843 29.8337C27.1298 28.2093 28.8053 25.9177 29.6724 23.2854C30.5396 20.6532 30.5539 17.8144 29.7136 15.1735C28.8732 12.5325 27.221 10.2241 24.9921 8.57696ZM24.2277 5.6379L25.2891 6.24917L24.2455 8.06572C23.9018 7.84606 23.5483 7.64222 23.1851 7.45419L24.2277 5.6379ZM15.1883 2.57715H19.1452V3.80124H15.1883V2.57715ZM16.5547 4.70359H17.7788V6.00734C17.5759 5.9978 17.373 5.99136 17.1667 5.99136C16.9605 5.99136 16.7576 5.99755 16.5547 6.00709V4.70359ZM9.04436 6.24917L10.1058 5.63945L11.1484 7.45419C10.7849 7.64188 10.4314 7.84572 10.088 8.06572L9.04436 6.24917ZM17.1667 31.4228C14.7411 31.4228 12.3699 30.7035 10.353 29.3558C8.33611 28.0082 6.76415 26.0927 5.83589 23.8517C4.90764 21.6106 4.66477 19.1447 5.13802 16.7656C5.61126 14.3865 6.77936 12.2012 8.49459 10.486C10.2098 8.77083 12.3952 7.60278 14.7742 7.12959C17.1533 6.65639 19.6193 6.8993 21.8603 7.82761C24.1013 8.75591 26.0167 10.3279 27.3643 12.3448C28.7119 14.3617 29.4312 16.7329 29.4311 19.1586C29.4274 22.4102 28.134 25.5275 25.8348 27.8266C23.5356 30.1258 20.4183 31.4191 17.1667 31.4228Z" fill="#34538A"></path> <path d="M26.0377 24.2345C26.93 22.6818 27.3972 20.9212 27.3923 19.1304C27.3874 17.3395 26.9106 15.5815 26.0098 14.0337C26.0039 14.0182 25.997 14.0032 25.9892 13.9885C25.9812 13.9765 25.9726 13.9649 25.9634 13.9537C25.0758 12.4604 23.8247 11.2159 22.3267 10.3361C22.3144 10.326 22.3015 10.3166 22.2881 10.308C22.2734 10.3004 22.2584 10.2937 22.2429 10.2879C20.6903 9.39558 18.9299 8.9283 17.1391 8.93314C15.3483 8.93799 13.5904 9.41478 12.0426 10.3155C12.0269 10.3217 12.0116 10.3287 11.9967 10.3366C11.9848 10.3446 11.9734 10.3532 11.9624 10.3624C10.4689 11.2501 9.22412 12.5011 8.34402 13.9991C8.32264 14.0235 8.30634 14.0519 8.29607 14.0826C7.40379 15.6354 6.93656 17.3959 6.94144 19.1867C6.94633 20.9775 7.42317 22.7354 8.32391 24.2833C8.32994 24.2988 8.33682 24.3139 8.34454 24.3286C8.35021 24.3384 8.35872 24.3456 8.3649 24.3544C9.25269 25.8513 10.5054 27.0988 12.006 27.9803C12.0186 27.9905 12.0318 28.0001 12.0454 28.0089C12.0568 28.0153 12.0692 28.0179 12.0808 28.0236C13.6362 28.9195 15.4008 29.3886 17.1958 29.3835C18.9908 29.3784 20.7527 28.8992 22.303 27.9945C22.3141 27.989 22.326 27.9867 22.3368 27.9803C22.3476 27.9738 22.3595 27.9635 22.3711 27.9545C23.868 27.0649 25.115 25.8103 25.9954 24.308C26.0024 24.2979 26.0111 24.2905 26.0173 24.2796C26.0251 24.2651 26.0319 24.25 26.0377 24.2345ZM22.262 26.9601L21.6822 25.9719C21.6217 25.8687 21.5226 25.7937 21.4068 25.7635C21.2911 25.7333 21.168 25.7503 21.0647 25.8108C20.9615 25.8713 20.8865 25.9704 20.8563 26.0862C20.8261 26.2019 20.8431 26.325 20.9036 26.4283L21.4842 27.4188C20.2875 28.0478 18.9675 28.407 17.617 28.4712V27.32C17.617 27.2004 17.5695 27.0856 17.4849 27.001C17.4003 26.9164 17.2855 26.8689 17.1658 26.8689C17.0462 26.8689 16.9314 26.9164 16.8468 27.001C16.7622 27.0856 16.7147 27.2004 16.7147 27.32V28.4712C15.3823 28.4072 14.0794 28.056 12.8954 27.4415L13.4704 26.4481C13.5284 26.3447 13.5434 26.2225 13.5121 26.1081C13.4807 25.9937 13.4056 25.8962 13.3029 25.8368C13.2002 25.7774 13.0783 25.7608 12.9635 25.7906C12.8487 25.8204 12.7502 25.8943 12.6894 25.9962L12.1153 26.9885C11.0184 26.278 10.0817 25.3466 9.36522 24.2536L10.3544 23.674C10.4571 23.6133 10.5316 23.5143 10.5615 23.3988C10.5914 23.2833 10.5743 23.1607 10.514 23.0577C10.4537 22.9548 10.3551 22.8799 10.2397 22.8495C10.1243 22.8191 10.0016 22.8356 9.89837 22.8954L8.90786 23.476C8.27873 22.2793 7.91943 20.9593 7.85521 19.6089H9.00634C9.126 19.6089 9.24076 19.5613 9.32537 19.4767C9.40998 19.3921 9.45751 19.2773 9.45751 19.1577C9.45751 19.038 9.40998 18.9233 9.32537 18.8387C9.24076 18.754 9.126 18.7065 9.00634 18.7065H7.85521C7.91882 17.3738 8.26982 16.0706 8.88414 14.8862L9.87775 15.4609C9.98112 15.5178 10.1027 15.5319 10.2163 15.5002C10.33 15.4685 10.4267 15.3936 10.4857 15.2915C10.5448 15.1894 10.5615 15.0682 10.5323 14.9539C10.5031 14.8396 10.4303 14.7412 10.3294 14.68L9.33737 14.1058C10.0478 13.0093 10.979 12.073 12.0717 11.3568L12.6516 12.346C12.7123 12.4487 12.8113 12.5231 12.9268 12.553C13.0423 12.5829 13.1649 12.5659 13.2679 12.5056C13.3708 12.4453 13.4457 12.3466 13.4761 12.2313C13.5065 12.1159 13.49 11.9932 13.4301 11.8899L12.8496 10.8994C14.0462 10.2703 15.3663 9.91103 16.7167 9.84704V10.9979C16.7167 11.1176 16.7643 11.2323 16.8489 11.3169C16.9335 11.4016 17.0483 11.4491 17.1679 11.4491C17.2876 11.4491 17.4023 11.4016 17.4869 11.3169C17.5715 11.2323 17.6191 11.1176 17.6191 10.9979V9.84704C18.9518 9.91057 20.255 10.2615 21.4393 10.8757L20.8634 11.8696C20.8328 11.9209 20.8127 11.9778 20.8042 12.0369C20.7958 12.0961 20.7992 12.1563 20.8142 12.2142C20.8292 12.272 20.8556 12.3263 20.8917 12.3738C20.9279 12.4214 20.9731 12.4613 21.0249 12.4912C21.0766 12.5211 21.1337 12.5405 21.193 12.5482C21.2522 12.5558 21.3124 12.5517 21.3701 12.5359C21.4277 12.5201 21.4816 12.493 21.5287 12.4562C21.5758 12.4194 21.6151 12.3736 21.6443 12.3215L22.2185 11.3282C23.3154 12.0388 24.2521 12.9704 24.9685 14.0636L23.9793 14.6431C23.9279 14.6729 23.8829 14.7126 23.8469 14.7598C23.8108 14.8071 23.7845 14.861 23.7694 14.9184C23.7542 14.9759 23.7506 15.0358 23.7586 15.0946C23.7667 15.1535 23.7863 15.2102 23.8163 15.2615C23.8464 15.3127 23.8862 15.3576 23.9336 15.3934C23.981 15.4292 24.035 15.4553 24.0926 15.4702C24.1501 15.4851 24.21 15.4885 24.2688 15.4802C24.3276 15.4718 24.3843 15.452 24.4354 15.4217L25.4262 14.8411C26.0551 16.0379 26.4143 17.3579 26.4785 18.7083H25.3274C25.2078 18.7083 25.093 18.7558 25.0084 18.8405C24.9238 18.9251 24.8762 19.0398 24.8762 19.1595C24.8762 19.2791 24.9238 19.3939 25.0084 19.4785C25.093 19.5631 25.2078 19.6107 25.3274 19.6107H26.4785C26.4148 20.943 26.0638 22.2458 25.4496 23.4299L24.4563 22.855C24.3527 22.795 24.2295 22.7787 24.1139 22.8096C23.9983 22.8405 23.8996 22.916 23.8397 23.0196C23.7798 23.1232 23.7635 23.2463 23.7943 23.362C23.8252 23.4776 23.9007 23.5762 24.0043 23.6361L24.9964 24.2103C24.2861 25.3071 23.3548 26.2437 22.262 26.9601Z" fill="#34538A"></path> <path d="M23.9713 19.1586C23.9713 19.0389 23.9238 18.9242 23.8392 18.8396C23.7545 18.7549 23.6398 18.7074 23.5201 18.7074H19.176C19.0898 18.327 18.8978 17.9788 18.6221 17.703C18.3463 17.4272 17.9981 17.2351 17.6178 17.1489V12.8051C17.6178 12.6854 17.5702 12.5706 17.4856 12.486C17.401 12.4014 17.2863 12.3539 17.1666 12.3539C17.0469 12.3539 16.9322 12.4014 16.8476 12.486C16.763 12.5706 16.7154 12.6854 16.7154 12.8051V17.1489C16.3555 17.2296 16.0237 17.4053 15.7549 17.6579C15.4861 17.9105 15.29 18.2306 15.1872 18.5849C15.0843 18.9391 15.0785 19.3145 15.1702 19.6718C15.262 20.0291 15.448 20.3552 15.7088 20.616C15.9696 20.8769 16.2957 21.0629 16.653 21.1547C17.0102 21.2465 17.3856 21.2407 17.7399 21.1379C18.0941 21.035 18.4143 20.839 18.6669 20.5702C18.9195 20.3014 19.0953 19.9697 19.176 19.6098H23.5201C23.6398 19.6097 23.7545 19.5621 23.8391 19.4775C23.9237 19.3929 23.9712 19.2782 23.9713 19.1586ZM17.1666 20.3169C16.9374 20.317 16.7134 20.2491 16.5228 20.1218C16.3322 19.9945 16.1837 19.8135 16.096 19.6018C16.0082 19.3901 15.9853 19.1571 16.03 18.9324C16.0747 18.7076 16.185 18.5011 16.3471 18.3391C16.5091 18.177 16.7156 18.0667 16.9404 18.022C17.1651 17.9773 17.3981 18.0002 17.6098 18.088C17.8216 18.1757 18.0025 18.3242 18.1298 18.5148C18.2571 18.7054 18.325 18.9294 18.3249 19.1586C18.3245 19.4657 18.2023 19.76 17.9851 19.9771C17.768 20.1943 17.4737 20.3165 17.1666 20.3169Z" fill="#34538A"></path> </svg> 