<?xml version="1.0" encoding="UTF-8"?> <svg xmlns="http://www.w3.org/2000/svg" width="24" height="24" viewBox="0 0 24 24" fill="none"> <path d="M21.6211 9.28333C21.7734 9.15417 22 9.275 22 9.47917V18C22 19.1042 21.1602 20 20.125 20H3.875C2.83984 20 2 19.1042 2 18V9.48333C2 9.275 2.22266 9.15833 2.37891 9.2875C3.25391 10.0125 4.41406 10.9333 8.39844 14.0208C9.22266 14.6625 10.6133 16.0125 12 16.0042C13.3945 16.0167 14.8125 14.6375 15.6055 14.0208C19.5898 10.9333 20.7461 10.0083 21.6211 9.28333ZM12 14.6667C12.9062 14.6833 14.2109 13.45 14.8672 12.9417C20.0508 8.92917 20.4453 8.57917 21.6406 7.57917C21.8672 7.39167 22 7.1 22 6.79167V6C22 4.89583 21.1602 4 20.125 4H3.875C2.83984 4 2 4.89583 2 6V6.79167C2 7.1 2.13281 7.3875 2.35938 7.57917C3.55469 8.575 3.94922 8.92917 9.13281 12.9417C9.78906 13.45 11.0938 14.6833 12 14.6667Z" fill="white"></path> </svg> 