<?xml version="1.0" encoding="UTF-8"?> <svg xmlns="http://www.w3.org/2000/svg" width="24" height="24" viewBox="0 0 24 24" fill="none"> <path d="M11.2071 21.8702C5.36926 13.4071 4.28564 12.5385 4.28564 9.42815C4.28564 5.16766 7.73943 1.71387 11.9999 1.71387C16.2604 1.71387 19.7142 5.16766 19.7142 9.42815C19.7142 12.5385 18.6306 13.4071 12.7927 21.8702C12.4096 22.4237 11.5902 22.4236 11.2071 21.8702ZM11.9999 12.6424C13.7751 12.6424 15.2142 11.2034 15.2142 9.42815C15.2142 7.65294 13.7751 6.21387 11.9999 6.21387C10.2247 6.21387 8.78564 7.65294 8.78564 9.42815C8.78564 11.2034 10.2247 12.6424 11.9999 12.6424Z" fill="white"></path> </svg> 