<?xml version="1.0" encoding="UTF-8"?> <svg xmlns="http://www.w3.org/2000/svg" width="24" height="24" viewBox="0 0 24 24" fill="none"> <path d="M21.2111 16.669L17.0861 14.7405C16.9099 14.6585 16.7141 14.6413 16.5281 14.6913C16.3421 14.7413 16.176 14.8558 16.0549 15.0177L14.2281 17.4525C11.3611 15.9779 9.05388 13.4609 7.70213 10.3333L9.93405 8.34043C10.0827 8.20852 10.188 8.02735 10.2338 7.82436C10.2797 7.62137 10.2637 7.4076 10.1882 7.21543L8.42033 2.71544C8.3375 2.50828 8.19101 2.33914 8.00611 2.23719C7.82122 2.13524 7.60951 2.10687 7.40749 2.15696L3.57713 3.12124C3.38236 3.17031 3.20859 3.28994 3.08417 3.46062C2.95976 3.6313 2.89204 3.84295 2.89209 4.06102C2.89209 14.3668 10.5491 22.7039 19.9814 22.7039C20.1813 22.704 20.3754 22.6302 20.532 22.4944C20.6885 22.3587 20.7982 22.1691 20.8432 21.9565L21.7271 17.778C21.7728 17.5565 21.7462 17.3246 21.652 17.1222C21.5578 16.9198 21.4019 16.7596 21.2111 16.669Z" fill="white"></path> </svg> 