<?xml version="1.0" encoding="UTF-8"?> <svg xmlns="http://www.w3.org/2000/svg" width="242" height="41" viewBox="0 0 242 41" fill="none"> <path d="M46.8402 33.9749L32.7318 28.8682L18.4531 33.9698L32.646 0L46.8402 33.9749ZM32.646 2.48167L20.1706 32.3396L32.7333 27.8522L45.1176 32.3345L32.646 2.48167Z" fill="#34538A"></path> <path d="M32.7289 28.332L11.5459 19.2888L32.6619 11.6866L53.7401 20.8338L32.7289 28.332ZM14.1608 19.3638L32.7595 27.3058L51.1377 20.7465L32.6292 12.7149L14.1608 19.3638Z" fill="#34538A"></path> <path d="M32.6459 40.0256L18.4517 6.04995L32.5608 11.1567L46.8381 6.05504L32.6459 40.0256ZM20.1735 7.69032L32.6459 37.5439L45.1205 7.6845L32.5586 12.1726L20.1735 7.69032Z" fill="#34538A"></path> <path d="M85.123 13.7671C86.2664 13.4265 87.1608 12.9098 87.7896 12.2264C88.593 11.3531 89.0013 10.22 89.0013 8.85763C89.0013 7.15175 88.3681 5.89636 87.1193 5.12639C85.8988 4.37534 84.0569 3.99472 81.6451 3.99472C81.0228 3.99472 80.287 4.01437 79.4581 4.05221C78.4531 4.09951 78.0979 4.1097 77.9917 4.11043L76.2756 3.97798L76.296 4.20358C76.4095 5.48881 76.4721 7.15612 76.4816 9.15965C76.491 11.1756 76.4961 12.9564 76.4961 14.5036C76.4961 16.4613 76.4772 18.5667 76.4386 20.7616C76.4008 22.9573 76.3528 24.4034 76.296 25.0613L76.2734 25.3204L76.5274 25.2658C76.78 25.2119 77.0245 25.1784 77.2545 25.1697C77.4903 25.1588 77.7406 25.1544 78.0062 25.1544C78.2559 25.1544 78.8024 25.1733 79.6306 25.2119C80.4872 25.2505 81.1276 25.2694 81.5876 25.2694C84.332 25.2694 86.4352 24.7156 87.8383 23.6239C89.2567 22.5206 89.9765 20.9079 89.9765 18.8302C89.975 16.0596 88.3441 14.3595 85.123 13.7671ZM86.8398 19.0601C86.8398 20.4829 86.3479 21.6102 85.377 22.4086C84.3953 23.2164 83.014 23.6261 81.2717 23.6261C80.731 23.6261 80.0978 23.5504 79.3868 23.4012C79.3177 22.6276 79.274 21.8227 79.2573 21.0047C79.2383 20.138 79.2289 19.0012 79.2289 17.6272V14.7998L81.1626 14.695C83.113 14.6957 84.5663 15.0487 85.4833 15.7444C86.3835 16.4307 86.8398 17.5457 86.8398 19.0601ZM81.4435 5.38256C82.9929 5.38256 84.1457 5.7035 84.8712 6.33811C85.5306 6.90941 85.8654 7.81474 85.8654 9.03011C85.8654 10.4376 85.468 11.5023 84.6835 12.1966C83.8931 12.8967 82.6006 13.2519 80.8416 13.2519C80.5774 13.2519 80.2907 13.2424 79.9792 13.2235C79.6903 13.206 79.4297 13.1805 79.2289 13.1529V9.25935C79.2289 8.93404 79.2522 8.27178 79.2995 7.29075C79.3402 6.44946 79.3839 5.8607 79.4312 5.53539C79.6233 5.51065 79.8882 5.46844 80.2274 5.40876C80.453 5.39202 80.862 5.38256 81.4435 5.38256Z" fill="#34538A"></path> <path d="M102.1 7.27825C99.2642 7.27825 96.955 8.11736 95.2353 9.77302C93.5127 11.4309 92.6401 13.6629 92.6401 16.4066C92.6401 19.1976 93.4931 21.4332 95.1764 23.0518C96.8561 24.6681 99.1856 25.4876 102.1 25.4876C104.904 25.4876 107.202 24.6449 108.93 22.9812C110.66 21.3153 111.537 19.1037 111.537 16.4073C111.537 13.6171 110.684 11.3734 109.002 9.73954C107.321 8.10644 104.998 7.27825 102.1 7.27825ZM102.1 24.1551C99.9869 24.1551 98.3458 23.4921 97.2199 22.1836C96.0868 20.8663 95.5119 18.9472 95.5119 16.4779C95.5119 13.946 96.0948 11.9774 97.244 10.6289C98.3851 9.28978 100.019 8.61078 102.099 8.61078C104.241 8.61078 105.888 9.26941 106.99 10.5692C108.1 11.8784 108.663 13.8347 108.663 16.3833C108.663 18.8839 108.085 20.8277 106.944 22.1603C105.81 23.4841 104.181 24.1551 102.1 24.1551Z" fill="#34538A"></path> <path d="M127.536 7.59247L127.29 7.52697L127.295 7.78096C127.326 9.70953 127.362 11.5479 127.401 13.2938C127.44 15.0528 127.461 16.8016 127.461 18.4885L127.422 20.2432C126.427 19.2425 125.264 18.049 123.879 16.6058C122.184 14.8475 120.789 13.3738 119.734 12.224C118.334 10.6971 116.875 9.056 115.401 7.34503L115.344 7.2788H114.589V10.1491C114.589 13.1679 114.574 16.3016 114.542 19.463C114.51 22.62 114.47 24.4649 114.424 24.9452L114.396 25.2327L114.67 25.1483C115.056 25.0297 115.627 25.0377 116.084 25.1505L116.323 25.2109V24.9634C116.323 23.4169 116.307 21.9003 116.276 20.4564C116.202 17.0941 116.158 15.0484 116.157 14.9887L116.218 12.1839L121.966 18.2447C123.352 19.7148 124.558 21.0212 125.553 22.1295C126.659 23.3478 127.601 24.4526 128.354 25.4139L128.413 25.4874H129.029V19.6064C129.029 18.3255 129.057 16.3293 129.111 13.6729C129.166 10.9904 129.194 9.00651 129.194 7.77805V7.51751L128.945 7.59393C128.574 7.71037 127.972 7.70964 127.536 7.59247Z" fill="#34538A"></path> <path d="M144.327 19.2478C143.426 17.1147 142.613 15.1708 141.887 13.4184C141.081 11.4432 140.265 9.43679 139.445 7.39906L139.398 7.27825H138.667L138.617 7.39469C136.196 13.0574 133.58 18.9436 130.843 24.8894L130.718 25.1623H131.018C131.06 25.1623 131.138 25.155 131.337 25.1055C131.534 25.0568 131.934 25.0451 132.288 25.0844C132.426 25.1004 132.535 25.123 132.613 25.1506L132.794 25.2161L132.858 25.0335C133.374 23.5714 133.907 22.1348 134.444 20.7637C134.865 19.6961 135.189 18.9021 135.41 18.4006H141.345L141.722 19.2871C142.128 20.2463 142.533 21.2651 142.927 22.3146C143.222 23.0962 143.54 24.0095 143.873 25.0291L143.926 25.1892L144.09 25.1587C144.529 25.0793 144.719 25.0611 144.802 25.0611H145.335C145.781 25.0611 146.185 25.0924 146.534 25.1528L146.888 25.2147L146.743 24.8865C146.121 23.4819 145.308 21.5839 144.327 19.2478ZM140.689 16.9495H137.612L136.001 16.9095L138.386 11.3988L140.37 16.1635L140.689 16.9495Z" fill="#34538A"></path> <path d="M167.062 3.62293C163.55 3.62293 160.728 4.63452 158.676 6.62859C156.621 8.62484 155.579 11.3132 155.579 14.6187C155.579 18.0756 156.534 20.7916 158.414 22.6918C160.296 24.5934 162.975 25.5577 166.375 25.5577C169.402 25.5577 171.735 24.9769 173.308 23.83L173.379 23.7791L173.596 21.2362L173.246 21.5208C171.19 23.1845 169.003 24.0287 166.747 24.0287C164.411 24.0287 162.537 23.1939 161.179 21.5477C159.81 19.8906 159.116 17.5691 159.116 14.6485C159.116 11.6138 159.814 9.2449 161.192 7.60743C162.561 5.97942 164.498 5.15414 166.948 5.15414C169.56 5.15414 171.579 6.21449 172.949 8.30608L173.302 8.84463V8.20056C173.302 7.30686 173.462 6.35277 173.78 5.36519L173.83 5.208L173.682 5.13449C171.676 4.13091 169.449 3.62293 167.062 3.62293Z" fill="#34538A"></path> <path d="M184.767 7.27825C181.931 7.27825 179.621 8.11736 177.9 9.77302C176.178 11.4309 175.305 13.6629 175.305 16.4066C175.305 19.1976 176.16 21.4332 177.841 23.0518C179.522 24.6681 181.851 25.4876 184.767 25.4876C187.571 25.4876 189.868 24.6449 191.596 22.9812C193.326 21.3146 194.203 19.1029 194.203 16.4073C194.203 13.6171 193.35 11.3741 191.668 9.73954C189.986 8.10644 187.664 7.27825 184.767 7.27825ZM184.767 24.1551C182.654 24.1551 181.012 23.4921 179.886 22.1836C178.753 20.8663 178.179 18.9472 178.179 16.4779C178.179 13.946 178.762 11.9774 179.911 10.6289C181.052 9.28978 182.686 8.61078 184.767 8.61078C186.909 8.61078 188.554 9.26941 189.657 10.5692C190.767 11.8784 191.33 13.8347 191.33 16.3833C191.33 18.8839 190.752 20.8277 189.611 22.1603C188.476 23.4841 186.846 24.1551 184.767 24.1551Z" fill="#34538A"></path> <path d="M211.433 7.68137H210.983C210.863 7.68137 210.726 7.67336 210.577 7.65735C210.43 7.64134 210.307 7.61878 210.208 7.58894L209.935 7.50598L209.961 7.79053C210.008 8.30433 210.046 8.91056 210.079 9.64269C210.111 10.3675 210.127 11.31 210.127 12.4446V17.258C210.127 19.6349 209.662 21.3888 208.75 22.4695C207.922 23.4469 206.64 23.9425 204.937 23.9425C202.992 23.9425 201.587 23.2941 200.76 22.0161C200.089 20.9783 199.748 19.4668 199.748 17.5215C199.748 16.2602 199.764 14.8498 199.795 13.3303C199.827 11.7663 199.867 9.91706 199.913 7.78326L199.92 7.55183L199.691 7.58967C199.32 7.6508 198.936 7.6821 198.549 7.6821C198.392 7.6821 198.198 7.67336 197.964 7.65735C197.735 7.64134 197.552 7.6166 197.419 7.58676L197.166 7.52708L197.306 9.6587C197.35 10.3472 197.373 10.9971 197.373 11.5909C197.373 12.2277 197.353 13.1098 197.314 14.2873C197.274 15.4408 197.231 16.587 197.183 17.7318C197.183 20.3786 197.774 22.3531 198.942 23.6019C200.111 24.8537 201.992 25.4875 204.534 25.4875C206.769 25.4875 208.488 24.9606 209.64 23.9214C210.616 23.043 211.274 21.7476 211.596 20.0701C211.788 19.0679 211.884 17.4931 211.884 15.3876V12.3769C211.884 11.9868 211.924 11.0284 212.003 9.44765C212.035 8.7963 212.051 8.25048 212.051 7.77889V7.54382L211.82 7.5904C211.742 7.60641 211.598 7.63843 211.433 7.68137Z" fill="#34538A"></path> <path d="M221.937 15.3439L219.902 14.4676C219.031 14.087 218.403 13.678 218.037 13.2523C217.683 12.8411 217.504 12.2814 217.504 11.5901C217.504 10.6826 217.761 9.95042 218.269 9.41479C218.78 8.87333 219.452 8.61061 220.321 8.61061C221.689 8.61061 222.769 9.21829 223.624 10.4708L223.859 10.8165L223.967 10.4118C224.154 9.71244 224.381 9.0691 224.645 8.49926L224.72 8.33552L224.562 8.25037C223.368 7.60557 222.053 7.2788 220.654 7.2788C219.047 7.2788 217.718 7.7584 216.706 8.70449C215.69 9.65422 215.175 10.8812 215.175 12.3535C215.175 13.4058 215.465 14.2952 216.036 14.9989C216.599 15.6932 217.475 16.2827 218.635 16.7499L220.673 17.6036C221.542 17.9696 222.172 18.3779 222.545 18.8182C222.908 19.2469 223.092 19.8473 223.092 20.602C223.092 21.682 222.776 22.5458 222.153 23.1688C221.529 23.7917 220.698 24.1076 219.681 24.1076C218.794 24.1076 217.994 23.8565 217.304 23.3616C216.612 22.8653 216.075 22.1521 215.711 21.2417L215.34 20.3174V21.313C215.34 21.7526 215.286 22.2009 215.18 22.6448C215.147 22.7845 215.054 23.12 214.804 23.9104L214.763 24.0385L214.869 24.1207C216.051 25.0268 217.51 25.4867 219.205 25.4867C221.065 25.4867 222.576 24.9598 223.698 23.9213C224.824 22.8769 225.394 21.5 225.394 19.8276C225.394 18.6989 225.121 17.7862 224.582 17.1152C224.052 16.4544 223.162 15.8584 221.937 15.3439Z" fill="#34538A"></path> <path d="M241.853 24.8857C241.232 23.4812 240.418 21.5839 239.438 19.2478C238.537 17.1147 237.723 15.1708 236.997 13.4184C236.192 11.4432 235.377 9.43679 234.556 7.39906L234.508 7.27825H233.777L233.729 7.39469C231.307 13.0574 228.692 18.9436 225.955 24.8894L225.83 25.1623H226.129C226.172 25.1623 226.249 25.155 226.448 25.1055C226.645 25.0568 227.046 25.0451 227.4 25.0844C227.537 25.1004 227.646 25.123 227.724 25.1506L227.906 25.2161L227.97 25.0335C228.484 23.5714 229.018 22.1348 229.555 20.7637C229.976 19.6961 230.301 18.9021 230.521 18.4006H236.456L236.833 19.2871C237.239 20.2463 237.644 21.2651 238.039 22.3146C238.333 23.0962 238.652 24.0095 238.985 25.0291L239.036 25.1892L239.201 25.1587C239.64 25.0793 239.83 25.0611 239.914 25.0611H240.447C240.892 25.0611 241.296 25.0924 241.646 25.1528L242 25.2147L241.853 24.8857ZM235.8 16.9495H232.723L231.112 16.9095L233.497 11.3988L235.48 16.1635L235.8 16.9495Z" fill="#34538A"></path> <path d="M94.5161 37.5191H94.5445L97.128 33.349H97.914V38.4455H97.2263V34.3308H97.2117L94.6209 38.4448H93.8276V33.3483H94.5161V37.5191Z" fill="#34538A"></path> <path d="M100.345 35.4539H103.005V33.3477H103.693V38.4443H103.005V36.0645H100.345V38.4443H99.6562V33.3477H100.345V35.4539Z" fill="#34538A"></path> <path d="M105.437 33.3477H107.676C108.632 33.3477 109.117 33.9372 109.117 34.633C109.117 34.9699 108.997 35.4342 108.435 35.6999C108.772 35.833 109.362 36.0652 109.362 36.9356C109.362 37.7565 108.759 38.4443 107.628 38.4443H105.438V33.3477H105.437ZM106.125 35.5026H107.368C108.028 35.5026 108.428 35.3054 108.428 34.6817C108.428 34.2116 108.141 33.9372 107.375 33.9372H106.125V35.5026V35.5026ZM106.125 37.8555H107.593C108.309 37.8555 108.674 37.4902 108.674 36.9218C108.674 36.2057 108.042 36.0652 107.48 36.0652H106.125V37.8555Z" fill="#34538A"></path> <path d="M114.663 38.4443H110.901V33.3477H114.615V33.9583H111.589V35.4539H114.377V36.0652H111.589V37.8351H114.664V38.4443H114.663Z" fill="#34538A"></path> <path d="M119.84 34.8853C119.65 33.9879 118.906 33.8256 118.415 33.8256C117.495 33.8256 116.751 34.5061 116.751 35.8474C116.751 37.0474 117.172 37.9673 118.436 37.9673C118.885 37.9673 119.657 37.7563 119.89 36.57H120.556C120.275 38.4942 118.717 38.5779 118.332 38.5779C117.173 38.5779 116.042 37.8262 116.042 35.8677C116.042 34.3031 116.934 33.2143 118.415 33.2143C119.728 33.2143 120.409 34.0287 120.508 34.8853H119.84V34.8853Z" fill="#34538A"></path> <path d="M123.914 38.4443H123.226V33.9583H121.5V33.3477H125.641V33.9583H123.914V38.4443V38.4443Z" fill="#34538A"></path> <path d="M127.644 37.5185H127.672L130.255 33.3485H131.042V38.445H130.354V34.3302H130.34L127.749 38.4443H126.956V33.3477H127.643V37.5185H127.644Z" fill="#34538A"></path> <path d="M133.474 37.8344H136.134V33.3477H136.821V37.8344H137.27V39.5468H136.639V38.4443H132.785V33.3477H133.473V37.8344H133.474Z" fill="#34538A"></path> <path d="M139.33 37.5185H139.358L141.941 33.3485H142.728V38.445H142.04V34.3302H142.025L139.434 38.4443H138.642V33.3477H139.329V37.5185H139.33Z" fill="#34538A"></path> <path d="M146.746 38.5781C144.844 38.5781 144.268 36.9981 144.268 35.8963C144.268 34.7937 144.844 33.2138 146.746 33.2138C148.648 33.2138 149.225 34.7937 149.225 35.8963C149.225 36.9981 148.648 38.5781 146.746 38.5781ZM146.746 33.8258C145.638 33.8258 144.977 34.6824 144.977 35.8825C144.977 37.0825 145.637 37.9675 146.746 37.9675C147.855 37.9675 148.516 37.0971 148.516 35.8963C148.515 34.6955 147.855 33.8258 146.746 33.8258Z" fill="#34538A"></path> <path d="M151.452 35.4539H154.113V33.3477H154.801V38.4443H154.113V36.0645H151.452V38.4443H150.765V33.3477H151.452V35.4539Z" fill="#34538A"></path> <path d="M157.232 35.4539H159.892V33.3477H160.579V38.4443H159.892V36.0645H157.232V38.4443H156.544V33.3477H157.232V35.4539Z" fill="#34538A"></path> <path d="M163.147 36.9567L162.612 38.4443H161.903L163.82 33.3477H164.599L166.438 38.4443H165.687L165.181 36.9567H163.147ZM164.935 36.3527L164.185 34.1061H164.171L163.355 36.3527H164.935Z" fill="#34538A"></path> <path d="M171.663 38.4443H170.976V36.261H169.838L168.476 38.4443H167.612L169.058 36.261C168.538 36.1627 167.717 35.8476 167.717 34.7458C167.717 33.6709 168.551 33.3477 169.395 33.3477H171.663V38.4443H171.663ZM170.976 33.9372H169.347C169.002 33.9372 168.427 34.0013 168.427 34.7872C168.427 35.5026 169.023 35.6722 169.529 35.6722H170.976V33.9372V33.9372Z" fill="#34538A"></path> <path d="M176.764 35.8199L179.235 33.3485H180.183L178.063 35.4051L180.239 38.445H179.347L177.564 35.8898L176.764 36.6547V38.445H176.077V33.3477H176.764V35.8199V35.8199Z" fill="#34538A"></path> <path d="M183.582 38.5781C181.68 38.5781 181.103 36.9981 181.103 35.8963C181.103 34.7937 181.68 33.2138 183.582 33.2138C185.483 33.2138 186.06 34.7937 186.06 35.8963C186.06 36.9981 185.483 38.5781 183.582 38.5781ZM183.582 33.8258C182.473 33.8258 181.812 34.6824 181.812 35.8825C181.812 37.0825 182.472 37.9675 183.582 37.9675C184.692 37.9675 185.351 37.0971 185.351 35.8963C185.351 34.6955 184.691 33.8258 183.582 33.8258Z" fill="#34538A"></path> <path d="M188.583 33.3477L190.029 37.6583H190.043L191.496 33.3477H192.472V38.4443H191.805V35.4335C191.805 35.285 191.826 34.6322 191.826 34.1621H191.819L190.379 38.4443H189.698L188.266 34.1621H188.245C188.245 34.625 188.266 35.285 188.266 35.4335V38.4443H187.599V33.3477H188.583Z" fill="#34538A"></path> <path d="M198.252 33.3477V38.4443H197.564V33.9583H194.904V38.4443H194.217V33.3477H198.252Z" fill="#34538A"></path> <path d="M200.817 36.9567L200.284 38.4443H199.575L201.491 33.3477H202.27L204.11 38.4443H203.359L202.854 36.9567H200.817ZM202.607 36.3527L201.856 34.1061H201.841L201.027 36.3527H202.607Z" fill="#34538A"></path> <path d="M206.119 35.4539H208.78V33.3477H209.468V38.4443H208.78V36.0645H206.119V38.4443H205.432V33.3477H206.119V35.4539Z" fill="#34538A"></path> <path d="M211.899 37.5185H211.928L214.511 33.3485H215.298V38.445H214.61V34.3302H214.595L212.004 38.4443H211.211V33.3477H211.899V37.5185H211.899Z" fill="#34538A"></path> <path d="M220.944 38.4443H220.256V36.261H219.119L217.756 38.4443H216.893L218.339 36.261C217.819 36.1627 216.997 35.8476 216.997 34.7458C216.997 33.6709 217.832 33.3477 218.676 33.3477H220.943V38.4443H220.944ZM220.256 33.9372H218.627C218.282 33.9372 217.707 34.0013 217.707 34.7872C217.707 35.5026 218.303 35.6722 218.81 35.6722H220.256V33.9372Z" fill="#34538A"></path> <path d="M32.6459 38.9515C22.228 38.9515 13.7524 30.476 13.7524 20.0581C13.7524 9.63945 22.228 1.16392 32.6459 1.16392C43.0631 1.16392 51.5386 9.63945 51.5386 20.0581C51.5386 30.4768 43.0638 38.9515 32.6459 38.9515ZM32.6459 2.12093C22.7556 2.12093 14.7094 10.1678 14.7094 20.0581C14.7094 29.9484 22.7556 37.9945 32.6459 37.9945C42.5362 37.9945 50.5831 29.9484 50.5831 20.0588C50.5831 10.1678 42.5369 2.12093 32.6459 2.12093Z" fill="#34538A"></path> <path d="M32.6463 27.5664C36.7926 27.5664 40.1539 24.2052 40.1539 20.0588C40.1539 15.9125 36.7926 12.5512 32.6463 12.5512C28.4999 12.5512 25.1387 15.9125 25.1387 20.0588C25.1387 24.2052 28.4999 27.5664 32.6463 27.5664Z" fill="#34538A"></path> <path d="M6.69687 20.0583C6.69687 12.9932 10.5853 6.70748 16.6316 2.65675C6.70561 6.08306 0 12.5893 0 20.0583C0 27.5266 6.70561 34.0328 16.6316 37.4598C10.5846 33.4076 6.69687 27.1227 6.69687 20.0583Z" fill="#34538A"></path> <path d="M48.6611 2.65645C54.7067 6.70718 58.5951 12.9943 58.5951 20.058C58.5951 27.1217 54.7067 33.4081 48.6611 37.4581C58.5864 34.0325 65.2927 27.5263 65.2927 20.058C65.2927 12.589 58.5864 6.08276 48.6611 2.65645Z" fill="#34538A"></path> </svg> 