<?xml version="1.0" encoding="UTF-8"?> <svg xmlns="http://www.w3.org/2000/svg" width="251" height="251" viewBox="0 0 251 251" fill="none"> <path fill-rule="evenodd" clip-rule="evenodd" d="M39.2997 171.654C32.4527 192.35 31.6301 224.042 54.832 235.711C90.471 253.636 156.008 248.655 192.504 238.289C227.034 228.481 220.042 182.621 208.787 158.155C196.57 131.597 170.569 99.7259 149.817 85.8726C144.275 82.1731 137.204 78.8564 136.871 79.8008C136.768 80.0927 137.69 84.8213 138.919 90.3089C141.039 99.7755 141.408 102.689 140.051 99.2414C139.716 98.3894 137.382 93.388 134.866 88.1272L130.29 78.562H126.046H121.802L114.27 88.7757C109.056 95.8443 106.422 99.4411 106.205 99.3005C105.981 99.156 108.312 95.0623 113.02 86.7311C115.016 83.1991 116.518 80.1789 116.359 80.0195C115.087 78.7483 105.103 84.8328 96.2031 92.3026C71.9315 112.674 49.3967 141.134 39.2997 171.654ZM136.91 72.2814C137.025 72.627 138.71 73.422 140.655 74.0481C142.6 74.6742 144.337 75.2114 144.515 75.2417C145.093 75.3403 170.094 46.1563 171.266 44.0162C173.821 39.3462 171.956 33.2751 166.443 28.3183C164.649 26.7054 162.932 25.3858 162.627 25.3858C162.322 25.3858 159.829 28.377 157.088 32.0328C150.884 40.3082 150.631 40.5728 151.966 37.3828C152.563 35.9562 154.983 30.1554 157.344 24.4922L161.637 14.1956L160.183 13.0182C158.303 11.4957 152.637 9.38767 146.837 8.05246C143.428 7.26757 138.991 6.99641 129.6 6.99954L116.955 7.00359L111.823 8.41346C106.685 9.82494 102.012 12.1164 100.461 13.9854L99.635 14.981L104.466 30.8834C107.124 39.6298 109.198 46.7859 109.077 46.7859C108.955 46.7859 106.372 41.825 103.336 35.7616C99.3854 27.8697 97.4983 24.7373 96.6951 24.7373C94.6841 24.7373 88.8361 28.1152 85.7837 31.0399C82.1555 34.5163 80.0455 38.8944 80.6569 41.6778C80.9282 42.9133 85.9026 49.3215 94.0976 58.9929C101.253 67.4375 107.199 74.4595 107.31 74.5971C107.421 74.7349 109.053 74.1512 110.936 73.3002L114.361 71.7527L123.147 71.7783L131.933 71.8038L137.367 63.8412C140.355 59.4618 143.001 56.0793 143.001 56.0793C143.001 56.0793 141.739 59.7389 139.951 63.9665C138.163 68.1942 136.795 71.9359 136.91 72.2814ZM135.875 129.404C135.875 128.299 134.979 127.404 133.875 127.404H122.04C120.935 127.404 120.04 128.299 120.04 129.404V135.398C120.04 136.37 119.34 137.195 118.391 137.406C113.271 138.545 109.198 140.661 106.171 143.755C102.893 147.173 101.254 151.624 101.254 157.106C101.254 163.04 102.958 167.652 106.368 170.941C109.843 174.231 114.827 176.811 121.318 178.681C126.761 180.358 130.269 181.584 131.842 182.358C133.482 183.132 134.301 184.164 134.301 185.454C134.301 187.969 131.58 189.227 126.138 189.227C122.138 189.227 117.745 188.388 112.958 186.711C109.823 185.571 107.068 184.278 104.692 182.833C103.253 181.958 101.254 182.941 101.254 184.625V198.96C101.254 199.647 101.603 200.288 102.194 200.638C106.852 203.393 112.212 205.219 118.274 206.118C119.278 206.267 120.04 207.117 120.04 208.132V213.639C120.04 214.744 120.935 215.639 122.04 215.639H133.875C134.979 215.639 135.875 214.744 135.875 213.639V207.377C135.875 206.439 136.529 205.633 137.435 205.389C142.529 204.013 146.566 201.625 149.546 198.224C152.89 194.483 154.562 189.936 154.562 184.583C154.562 179.036 153.054 174.618 150.038 171.328C147.087 167.974 142.301 165.33 135.678 163.395C129.842 161.718 126.039 160.428 124.269 159.525C122.498 158.622 121.613 157.687 121.613 156.719C121.613 154.655 123.974 153.623 128.695 153.623C134.977 153.623 141.283 155.136 147.613 158.163C148.988 158.82 150.628 157.849 150.628 156.326V142.356C150.628 141.61 150.215 140.922 149.543 140.599C145.881 138.836 141.918 137.641 137.656 137.015C136.646 136.867 135.875 136.014 135.875 134.993V129.404Z" fill="#A6AAC8"></path> </svg> 