<?xml version="1.0" encoding="UTF-8"?> <svg xmlns="http://www.w3.org/2000/svg" width="167" height="167" viewBox="0 0 167 167" fill="none"> <circle cx="83.5" cy="83.5" r="83.5" fill="#F46F60"></circle> <path d="M69.2683 96.7256C60.679 88.1364 58.7396 79.5471 58.3021 76.1058C58.1798 75.1543 58.5073 74.2001 59.188 73.5241L66.1388 66.5764C67.1613 65.5545 67.3428 63.962 66.5764 62.7363L55.5093 45.5516C54.6614 44.1944 52.9205 43.7046 51.4893 44.4206L33.7228 52.788C32.5655 53.3579 31.8847 54.5875 32.0161 55.8708C32.947 64.7145 36.8026 86.4545 58.1671 107.821C79.5316 129.187 101.268 133.041 110.117 133.972C111.4 134.103 112.63 133.422 113.2 132.265L121.567 114.498C122.28 113.07 121.794 111.334 120.442 110.485L103.258 99.4206C102.033 98.6534 100.44 98.8336 99.4175 99.855L92.4698 106.806C91.7938 107.487 90.8396 107.814 89.888 107.692C86.4468 107.254 77.8575 105.315 69.2683 96.7256Z" fill="white"></path> <path d="M98.7209 44C85.868 44 75.448 53.0299 75.448 64.1698C75.469 68.2572 76.8623 72.2192 79.4044 75.4199L76.9995 87.4427L89.2007 82.5616C92.2362 83.7403 95.4646 84.3433 98.7209 84.3397C111.574 84.3397 121.994 75.3098 121.994 64.1698C121.994 53.0299 111.574 44 98.7209 44ZM86.3087 67.2729C84.5949 67.2729 83.2056 65.8836 83.2056 64.1698C83.2056 62.4561 84.5949 61.0668 86.3087 61.0668C88.0224 61.0668 89.4117 62.4561 89.4117 64.1698C89.4117 65.8836 88.0224 67.2729 86.3087 67.2729ZM98.7209 67.2729C97.0071 67.2729 95.6178 65.8836 95.6178 64.1698C95.6178 62.4561 97.0071 61.0668 98.7209 61.0668C100.435 61.0668 101.824 62.4561 101.824 64.1698C101.824 65.8836 100.435 67.2729 98.7209 67.2729ZM111.133 67.2729C109.419 67.2729 108.03 65.8836 108.03 64.1698C108.03 62.4561 109.419 61.0668 111.133 61.0668C112.847 61.0668 114.236 62.4561 114.236 64.1698C114.236 65.8836 112.847 67.2729 111.133 67.2729Z" fill="white"></path> </svg> 