<?xml version="1.0" encoding="UTF-8"?> <svg xmlns="http://www.w3.org/2000/svg" width="80" height="80" viewBox="0 0 80 80" fill="none"> <path d="M40.0001 52.3077C44.5316 52.3077 48.2052 48.6342 48.2052 44.1026C48.2052 39.571 44.5316 35.8975 40.0001 35.8975C35.4685 35.8975 31.7949 39.571 31.7949 44.1026C31.7949 48.6342 35.4685 52.3077 40.0001 52.3077Z" fill="#A6AAC8"></path> <path d="M39.8647 55.036L39.6623 55.0347L38.6804 66.8323L40.0001 68.1519L41.3197 66.8323L40.3379 55.0429H40.0001C39.9549 55.0429 39.9098 55.036 39.8647 55.036Z" fill="#A6AAC8"></path> <path d="M67.5857 38.6323C66.9279 38.6323 66.2824 38.899 65.8175 39.3639L55.1316 50.0498C52.8451 52.3363 49.8243 53.846 46.6216 54.3055L43.0619 54.8046L44.1504 67.8672L40 72.019L35.8496 67.8686L36.9381 54.8156L33.3799 54.3069C30.1771 53.8474 27.1563 52.3376 24.8698 50.0511L14.184 39.3653C13.7176 38.899 13.0735 38.6323 12.4144 38.6323C11.0359 38.6323 9.91455 39.7537 9.91455 41.1322C9.91455 41.7899 10.1812 42.4354 10.6462 42.9004L30.4274 62.6816V79.658H49.5727V62.6816L69.3539 42.9004C69.8188 42.4354 70.0855 41.7913 70.0855 41.1322C70.0855 39.7537 68.9641 38.6323 67.5857 38.6323Z" fill="#A6AAC8"></path> <path d="M71.4529 26.325C66.9278 26.325 63.2478 30.005 63.2478 34.5301H60.5127C60.5127 28.5828 65.2854 23.739 71.2013 23.6023C69.9076 16.5814 63.6936 11.2823 56.4102 11.2823C53.9719 11.2823 51.6334 11.858 49.4604 12.9917L48.3527 13.5688L47.6772 12.5185C43.8755 6.60672 37.4262 3.07715 30.4273 3.07715C19.1165 3.07715 9.91445 12.2792 9.91445 23.59C9.91445 23.6201 9.91718 23.6488 9.91718 23.6789C12.964 24.0645 15.7401 25.7192 17.5233 28.2751L15.2792 29.8409C13.7449 27.6392 11.2259 26.325 8.54693 26.325C4.0218 26.325 0.341797 30.005 0.341797 34.5301C0.341797 38.6737 3.4324 42.1007 7.42829 42.6505C7.27923 42.1623 7.1794 41.6577 7.1794 41.1325C7.1794 38.2471 9.52881 35.8977 12.4143 35.8977C13.8119 35.8977 15.1274 36.4419 16.1162 37.4307L21.4208 42.7353H29.1541C29.831 37.3472 34.4314 33.1626 39.9999 33.1626C45.5685 33.1626 50.1688 37.3472 50.8457 42.7353H58.5791L63.8837 37.4307C64.871 36.4419 66.1866 35.8977 67.5856 35.8977C70.471 35.8977 72.8204 38.2471 72.8204 41.1325C72.8204 41.6563 72.7206 42.1609 72.5715 42.6491C76.5674 42.1007 79.658 38.6737 79.658 34.5301C79.658 30.005 75.978 26.325 71.4529 26.325ZM33.388 6.05834C34.3944 6.22655 35.3927 6.48501 36.3527 6.82552L35.442 9.4033C34.6297 9.11749 33.7873 8.90005 32.9367 8.75646L33.388 6.05834ZM15.5924 21.0806L12.8943 20.6293C14.3356 12.044 21.7093 5.81219 30.4273 5.81219V8.54723C23.0495 8.54723 16.8109 13.8177 15.5924 21.0806ZM54.642 34.1295L52.7083 32.1958L54.4765 30.4276H25.5233L27.2915 32.1958L25.3579 34.1295L20.2885 29.0601L25.3579 23.9907L27.2915 25.9243L25.5233 27.6925H54.4765L52.7083 25.9243L54.642 23.9907L59.7114 29.0601L54.642 34.1295Z" fill="#A6AAC8"></path> <path d="M76.6591 11.5049L76.4389 10.7883C76.2434 10.1565 75.9808 9.52607 75.6567 8.91479L75.3039 8.25154L76.8492 5.54385L74.4588 3.15342L71.7511 4.69872L71.0878 4.3459C70.4766 4.0218 69.8461 3.75787 69.2143 3.56368L68.4978 3.34351L67.6731 0.341797H64.2913L63.4694 3.34077L62.7528 3.56094C62.121 3.7565 61.4906 4.01906 60.8793 4.34316L60.216 4.69598L57.5083 3.15069L55.1179 5.54111L56.6632 8.24881L56.5032 8.54966C57.563 8.55513 58.6037 8.65906 59.6157 8.84641C61.1651 6.93462 63.4803 5.81188 65.9829 5.81188C70.508 5.81188 74.188 9.49188 74.188 14.017C74.188 15.7962 73.589 17.485 72.5374 18.895C73.2622 20.4539 73.7613 22.136 74.0034 23.9015C74.3808 23.9917 74.7487 24.1025 75.1083 24.231L76.8478 22.4915L75.3025 19.7838L75.6554 19.1206C75.9795 18.5093 76.2434 17.8789 76.4376 17.2471L76.6577 16.5305L79.6581 15.7073V12.3254L76.6591 11.5049Z" fill="#A6AAC8"></path> <path d="M70.9826 16.2036C71.2821 15.5199 71.453 14.7814 71.453 14.017C71.453 11.0002 68.9997 8.54688 65.9829 8.54688C64.7453 8.54688 63.5802 8.96397 62.6353 9.69833C66.0212 10.9783 68.9286 13.2662 70.9826 16.2036Z" fill="#A6AAC8"></path> </svg> 