<?xml version="1.0" encoding="UTF-8"?> <svg xmlns="http://www.w3.org/2000/svg" width="80" height="80" viewBox="0 0 80 80" fill="none"> <path d="M22.0554 14.6962H39.2348C41.695 9.18238 46.0212 4.72385 46.0574 4.65131C46.7475 4.00722 46.9315 3.04107 46.5634 2.16694C46.1955 1.29281 45.3674 0.740723 44.4473 0.740723C40.3066 0.740723 38.0523 2.21294 36.258 3.40913C34.6478 4.51329 33.4056 5.34142 30.6452 5.34142C27.8848 5.34142 26.6426 4.51329 25.0323 3.40913C23.2381 2.21294 20.9837 0.740723 16.8431 0.740723C15.923 0.740723 15.0948 1.29281 14.7268 2.16694C14.3587 3.04107 14.5428 4.00722 15.2329 4.65131C15.2692 4.72385 19.5952 9.18238 22.0554 14.6962Z" fill="#A6AAC8"></path> <path d="M46.9009 72.3585V76.9591C46.9009 78.2296 47.9308 79.2595 49.2012 79.2595H76.9588C78.2292 79.2595 79.2591 78.2296 79.2591 76.9591V72.3585C79.2591 71.088 78.2292 70.0581 76.9588 70.0581H49.2012C47.9308 70.0581 46.9009 71.088 46.9009 72.3585Z" fill="#A6AAC8"></path> <path d="M79.2591 63.1569V58.5562C79.2591 57.2858 78.2292 56.2559 76.9588 56.2559H49.2012C47.9308 56.2559 46.9009 57.2858 46.9009 58.5562V63.1569C46.9009 64.4273 47.9308 65.4572 49.2012 65.4572H76.9588C78.2292 65.4572 79.2591 64.4273 79.2591 63.1569Z" fill="#A6AAC8"></path> <path d="M46.6096 37.945C42.101 33.5284 38.4204 29.7865 37.6843 23.8976H39.8466C41.1348 23.8976 42.147 22.8854 42.147 21.5972C42.147 20.309 41.1348 19.2969 39.8466 19.2969H21.4438C20.1557 19.2969 19.1435 20.309 19.1435 21.5972C19.1435 22.8854 20.1557 23.8976 21.4438 23.8976H23.6062C22.8701 29.7865 19.1895 33.5284 14.6808 37.945C8.14784 44.34 0.740723 51.6091 0.740723 68.2176C0.832737 74.2905 6.03152 79.2593 12.2425 79.2593H42.5702C42.3126 78.5369 42.147 77.7686 42.147 76.9589V58.5561C42.147 54.7514 45.2432 51.6551 49.048 51.6551H57.2879C54.5044 45.6895 50.3761 41.6409 46.6096 37.945ZM30.6452 51.6551C34.4506 51.6551 37.5463 54.7507 37.5463 58.5561C37.5463 61.5512 35.6174 64.0806 32.9456 65.0335V67.7575C32.9456 69.029 31.9167 70.0579 30.6452 70.0579C29.3738 70.0579 28.3449 69.029 28.3449 67.7575V65.0335C25.6731 64.0808 23.7442 61.5512 23.7442 58.5561C23.7442 57.2847 24.7731 56.2558 26.0445 56.2558C27.316 56.2558 28.3449 57.2847 28.3449 58.5561C28.3449 59.8253 29.3761 60.8565 30.6452 60.8565C31.9144 60.8565 32.9456 59.8253 32.9456 58.5561C32.9456 57.287 31.9144 56.2558 30.6452 56.2558C26.8398 56.2558 23.7442 53.1601 23.7442 49.3547C23.7442 46.3597 25.6731 43.8302 28.3449 42.8774V40.1534C28.3449 38.8819 29.3738 37.853 30.6452 37.853C31.9167 37.853 32.9456 38.8819 32.9456 40.1534V42.8774C35.6174 43.8301 37.5463 46.3597 37.5463 49.3547C37.5463 50.6262 36.5174 51.6551 35.2459 51.6551C33.9745 51.6551 32.9456 50.6262 32.9456 49.3547C32.9456 48.0856 31.9144 47.0544 30.6452 47.0544C29.3761 47.0544 28.3449 48.0856 28.3449 49.3547C28.3449 50.6239 29.3761 51.6551 30.6452 51.6551Z" fill="#A6AAC8"></path> </svg> 