<?xml version="1.0" encoding="UTF-8"?> <svg xmlns="http://www.w3.org/2000/svg" width="80" height="80" viewBox="0 0 80 80" fill="none"> <path d="M61.9188 18.4681C63.506 18.4681 65.0611 18.0513 66.4238 17.2337L79.3615 9.58643V6.01131L64.8046 14.4922C63.6984 15.1335 62.4479 15.4701 61.1813 15.4541L41.911 15.2297C40.949 14.877 40.1795 14.6525 39.8909 14.5403C33.8629 13.1936 29.1495 13.7227 25.9432 14.5884C23.5384 15.2297 20.9733 14.9892 18.6967 13.9471L1.22192 5.93115V37.9629L3.03353 38.9569C5.71086 40.4158 7.84311 42.6763 9.17376 45.4178L8.14772 46.2515C5.39023 48.2554 4.79704 52.1352 6.60865 54.8766C7.61866 56.2073 9.04551 57.057 10.6808 57.3456C10.8731 57.3616 11.1617 57.3776 11.3701 57.3776C11.9633 57.4097 12.5405 57.3456 13.0375 57.2654C13.0695 58.6441 13.3902 59.8305 14.2078 60.9527C15.298 62.4758 17.0294 63.1651 18.8891 63.2613C19.3701 63.2934 19.8671 63.3094 20.2518 63.3415C20.0755 64.8004 20.4923 66.2914 21.4061 67.5098C22.4161 68.8404 23.843 69.6901 25.4782 69.9787C25.6706 69.9947 25.9592 70.0108 26.1676 70.0108C27.6265 70.0909 29.0213 69.6741 30.1435 68.8565L30.7527 68.3916C30.897 69.2733 31.1535 70.0749 31.6986 70.7963C32.5163 71.9186 33.7507 72.6721 35.2096 72.9446C35.402 72.9606 35.5944 72.9607 35.8028 72.9767C36.9731 73.0408 38.1595 72.7041 39.1855 71.9827H39.2817L40.0032 72.9927C41.2697 74.8204 43.8989 75.2532 45.7266 73.9867C47.2496 72.8965 47.8588 70.7643 47.1694 69.0649L47.2977 69.2573C48.5001 71.0368 50.7766 71.8064 52.7646 70.9887C54.961 70.0909 55.8427 67.7182 55.2656 65.6822C56.7405 67.3334 59.2735 67.6541 61.1012 66.3876L61.1974 66.2914C63.025 65.0248 63.5541 62.604 62.5761 60.6802C64.1633 62.1391 66.6963 62.3635 68.524 61.097C70.6562 59.5419 71.2173 56.544 69.6622 54.3957L67.3857 51.1412L72.3396 45.3697C73.6382 43.8467 75.1933 42.5641 76.9247 41.5541L79.3615 40.1433V36.3277L75.9948 38.2355C74.071 39.3257 72.3396 40.7365 70.8967 42.4198L65.5741 48.5921C63.9869 47.1332 61.4539 46.9088 59.6262 48.1753C57.494 49.7304 56.9329 52.7284 58.488 54.8766L58.5681 55.085H58.4719C56.9649 54.0269 54.9129 53.9147 53.2936 55.0049L53.1974 55.1011C51.7706 56.0951 51.0973 57.8265 51.4019 59.5099L50.8888 59.8786C49.462 59.1251 47.6985 59.1251 46.2716 60.1191C44.957 61.0329 44.2837 62.6521 44.3959 64.1271L42.9851 65.0248C41.927 64.7683 40.7406 65.0088 39.8268 65.6341C38.7046 66.4517 38.0473 67.7984 38.0793 69.0649L37.3739 69.5138C36.9571 69.8825 36.2677 70.0428 35.6906 69.9146C35.1134 69.7863 34.5363 69.4657 34.1675 68.9527C33.7988 68.5358 33.6385 67.8465 33.7667 67.2693C33.895 66.6922 34.2156 66.115 34.7287 65.7463L42.3759 59.9908C42.7767 59.7183 43.0011 59.3335 43.0172 58.8526C43.0653 57.9708 42.3118 57.2173 41.446 57.2173C41.1094 57.2173 40.8368 57.2975 40.5482 57.4578L28.3319 66.3074C27.6265 66.7563 26.8249 67.0128 25.9592 66.8685C25.0935 66.7242 24.3239 66.2914 23.875 65.586C22.865 64.2553 23.1696 62.2193 24.5965 61.2253L39.1535 50.8366C39.4741 50.548 39.6986 50.1472 39.6986 49.6182C39.7146 48.7845 39.0252 48.0791 38.1916 48.047C37.7106 48.031 37.3258 48.2074 37.0052 48.5761L22.7528 58.8846C22.352 59.061 22.1436 59.3495 21.839 59.6221C20.1236 60.7123 17.5905 60.4718 16.6767 59.2534C15.7629 57.9387 15.9553 56.1752 17.0935 55.069L18.5204 54.075L34.3599 43.2695C34.7607 42.997 34.9852 42.6122 35.0012 42.1313C35.0333 41.6022 34.7768 41.1052 34.3439 40.8006C33.7828 40.3998 33.2217 40.3838 32.6285 40.7365L15.6667 52.2634C15.5545 52.4558 15.3621 52.536 15.2499 52.6322L13.6146 53.8185C12.284 54.8285 10.2479 54.5239 9.25392 53.0971C8.24391 51.7664 8.54852 49.7304 9.97536 48.7364L41.9591 25.1855C44.5242 26.6925 46.4159 29.7225 46.4159 29.7225C49.5582 39.5661 53.47 39.6463 55.8427 38.4599C57.0772 37.8507 57.6383 36.3918 57.2054 35.0772C55.9549 31.2776 55.2335 23.919 55.2335 23.919C54.3517 22.0112 51.5301 20.0072 48.3879 18.3719L58.6643 18.5322L61.9188 18.4681Z" fill="#A6AAC8"></path> </svg> 