<?xml version="1.0" encoding="UTF-8"?> <svg xmlns="http://www.w3.org/2000/svg" width="80" height="80" viewBox="0 0 80 80" fill="none"> <path d="M20.8369 1.27686C19.2935 1.27686 18.0425 2.52792 18.0425 4.07124V9.65985H23.6311V4.07124C23.6311 2.52792 22.38 1.27686 20.8369 1.27686Z" fill="#A6AAC8"></path> <path d="M59.9575 1.27686C58.4141 1.27686 57.1631 2.52792 57.1631 4.07124V9.65985H62.7517V4.07124C62.7519 2.52792 61.5008 1.27686 59.9575 1.27686Z" fill="#A6AAC8"></path> <path d="M23.631 40.3975H18.0424C16.4991 40.3975 15.248 41.6485 15.248 43.1918C15.248 44.7352 16.4991 45.9862 18.0424 45.9862H23.631C25.1744 45.9862 26.4254 44.7352 26.4254 43.1918C26.4254 41.6485 25.1744 40.3975 23.631 40.3975Z" fill="#A6AAC8"></path> <path d="M43.1916 40.3975H37.603C36.0597 40.3975 34.8086 41.6485 34.8086 43.1918C34.8086 44.7352 36.0597 45.9862 37.603 45.9862H43.1916C44.7349 45.9862 45.986 44.7352 45.986 43.1918C45.986 41.6485 44.7349 40.3975 43.1916 40.3975Z" fill="#A6AAC8"></path> <path d="M62.7519 40.3975H57.1633C55.62 40.3975 54.3689 41.6485 54.3689 43.1918C54.3689 44.7352 55.62 45.9862 57.1633 45.9862H62.7519C64.2952 45.9862 65.5463 44.7352 65.5463 43.1918C65.5463 41.6485 64.2951 40.3975 62.7519 40.3975Z" fill="#A6AAC8"></path> <path d="M23.631 51.5742H18.0424C16.4991 51.5742 15.248 52.8253 15.248 54.3686C15.248 55.9119 16.4991 57.163 18.0424 57.163H23.631C25.1744 57.163 26.4254 55.9119 26.4254 54.3686C26.4254 52.8253 25.1744 51.5742 23.631 51.5742Z" fill="#A6AAC8"></path> <path d="M43.1916 51.5742H37.603C36.0597 51.5742 34.8086 52.8253 34.8086 54.3686C34.8086 55.9119 36.0597 57.163 37.603 57.163H43.1916C44.7349 57.163 45.986 55.9119 45.986 54.3686C45.986 52.8253 44.7349 51.5742 43.1916 51.5742Z" fill="#A6AAC8"></path> <path d="M62.7519 51.5742H57.1633C55.62 51.5742 54.3689 52.8253 54.3689 54.3686C54.3689 55.9119 55.62 57.163 57.1633 57.163H62.7519C64.2952 57.163 65.5463 55.9119 65.5463 54.3686C65.5461 52.8253 64.2951 51.5742 62.7519 51.5742Z" fill="#A6AAC8"></path> <path d="M23.631 62.7515H18.0424C16.4991 62.7515 15.248 64.0025 15.248 65.5458C15.248 67.0892 16.4991 68.3401 18.0424 68.3401H23.631C25.1744 68.3401 26.4254 67.089 26.4254 65.5457C26.4254 64.0024 25.1744 62.7515 23.631 62.7515Z" fill="#A6AAC8"></path> <path d="M43.1916 62.7515H37.603C36.0597 62.7515 34.8086 64.0025 34.8086 65.5458C34.8086 67.0892 36.0597 68.3402 37.603 68.3402H43.1916C44.7349 68.3402 45.986 67.0892 45.986 65.5458C45.986 64.0025 44.7349 62.7515 43.1916 62.7515Z" fill="#A6AAC8"></path> <path d="M62.7519 62.7515H57.1633C55.62 62.7515 54.3689 64.0025 54.3689 65.5458C54.3689 67.0892 55.62 68.3402 57.1633 68.3402H62.7519C64.2952 68.3402 65.5463 67.0892 65.5463 65.5458C65.5463 64.0025 64.2951 62.7515 62.7519 62.7515Z" fill="#A6AAC8"></path> <path d="M37.7559 25.7012C37.4345 25.9457 37.0029 26.068 36.4611 26.068C36.1305 26.068 35.832 26.0046 35.5657 25.8778C35.3086 25.7419 35.18 25.5426 35.18 25.2799C35.18 25.0807 35.2902 24.9086 35.5106 24.7636C35.731 24.6187 36.0065 24.5462 36.3371 24.5462C36.7963 24.5462 37.1406 24.6549 37.3702 24.8723C37.5998 25.0897 37.7284 25.366 37.7559 25.7012Z" fill="#A6AAC8"></path> <path d="M45.0705 26.068C45.6123 26.068 46.0439 25.9457 46.3654 25.7012C46.3378 25.366 46.2092 25.0897 45.9797 24.8723C45.7501 24.6549 45.4057 24.5462 44.9465 24.5462C44.6159 24.5462 44.3404 24.6187 44.12 24.7636C43.8996 24.9086 43.7894 25.0807 43.7894 25.2799C43.7894 25.5426 43.918 25.7419 44.1751 25.8778C44.4414 26.0046 44.7399 26.068 45.0705 26.068Z" fill="#A6AAC8"></path> <path fill-rule="evenodd" clip-rule="evenodd" d="M62.7519 9.65967H71.1349C75.7647 9.65967 79.5179 13.4129 79.5179 18.0427V71.135C79.5179 75.7648 75.7647 79.518 71.1349 79.518H9.6596C5.0298 79.518 1.27661 75.7648 1.27661 71.135V18.0427C1.27661 13.4129 5.0298 9.65967 9.6596 9.65967H18.0424V20.837C18.0424 22.3804 19.2935 23.6314 20.8368 23.6314C22.3801 23.6314 23.6312 22.3804 23.6312 20.837V9.65967H57.1632V20.837C57.1632 22.3804 58.4142 23.6314 59.9576 23.6314C61.5009 23.6314 62.7519 22.3804 62.7519 20.837V9.65967ZM71.1348 73.9294C72.6781 73.9294 73.9292 72.6783 73.9292 71.135V34.8087H6.86522V71.135C6.86522 72.6783 8.11628 73.9294 9.6596 73.9294H71.1348ZM32.8658 30.7013C33.6464 31.2267 34.6014 31.4894 35.731 31.4894C37.1911 31.4894 38.3574 31.0818 39.2299 30.2665C40.1115 29.4422 40.5523 28.2873 40.5523 26.8017C40.5523 25.4068 40.1803 24.279 39.4365 23.4185C38.7018 22.5579 37.6136 22.1277 36.1718 22.1277C35.0698 22.1277 34.156 22.4311 33.4305 23.038C32.7142 23.6359 32.3561 24.4194 32.3561 25.3886C32.3561 26.3126 32.6775 27.0463 33.3203 27.5898C33.9632 28.1242 34.7254 28.3915 35.607 28.3915C36.5437 28.3915 37.2554 28.0835 37.7421 27.4675V27.5083C37.7421 27.9521 37.5493 28.3235 37.1636 28.6224C36.7871 28.9214 36.3095 29.0708 35.731 29.0708C35.0698 29.0708 34.505 28.9078 34.0367 28.5817L32.8658 30.7013ZM28.6589 31.3399H31.4414V22.2771H29.0446L25.5319 25.674L27.1023 27.2909L28.6589 25.7691V31.3399ZM44.3404 31.4894C43.2109 31.4894 42.2558 31.2267 41.4752 30.7013L42.6461 28.5817C43.1144 28.9078 43.6792 29.0708 44.3404 29.0708C44.919 29.0708 45.3965 28.9214 45.773 28.6224C46.1587 28.3235 46.3516 27.9521 46.3516 27.5083V27.4675C45.8649 28.0835 45.1531 28.3915 44.2164 28.3915C43.3348 28.3915 42.5726 28.1242 41.9298 27.5898C41.2869 27.0463 40.9655 26.3126 40.9655 25.3886C40.9655 24.4194 41.3237 23.6359 42.04 23.038C42.7655 22.4311 43.6792 22.1277 44.7812 22.1277C46.223 22.1277 47.3112 22.5579 48.0459 23.4185C48.7898 24.279 49.1617 25.4068 49.1617 26.8017C49.1617 28.2873 48.7209 29.4422 47.8393 30.2665C46.9669 31.0818 45.8006 31.4894 44.3404 31.4894ZM52.5366 31.3399H55.3192V22.2771H52.9223L49.4097 25.674L50.98 27.2909L52.5366 25.7691V31.3399Z" fill="#A6AAC8"></path> </svg> 