<?xml version="1.0" encoding="UTF-8"?> <svg xmlns="http://www.w3.org/2000/svg" width="80" height="80" viewBox="0 0 80 80" fill="none"> <path d="M7.34288 26.9369C5.99085 26.9369 4.89355 25.8396 4.89355 24.4876V21.2218C4.89355 19.8698 5.99085 18.7725 7.34288 18.7725C8.69491 18.7725 9.7922 19.8698 9.7922 21.2218V24.4876C9.7922 25.8396 8.69491 26.9369 7.34288 26.9369Z" fill="#A6AAC8"></path> <path d="M7.75103 23.6713H3.2606C1.90858 23.6713 0.811279 22.574 0.811279 21.2219C0.811279 19.8699 1.90858 18.7726 3.2606 18.7726H7.75103C8.42705 18.7726 8.9757 18.224 8.9757 17.5479C8.9757 16.8719 8.42705 16.3233 7.75103 16.3233H6.93459C3.55779 16.3233 0.811279 13.5768 0.811279 10.2C0.811279 6.82317 3.55779 4.07666 6.93459 4.07666H11.425C12.777 4.07666 13.8743 5.17396 13.8743 6.52599C13.8743 7.87801 12.777 8.97531 11.425 8.97531H6.93459C6.25858 8.97531 5.70993 9.52396 5.70993 10.2C5.70993 10.876 6.25858 11.4246 6.93459 11.4246H7.75103C11.1278 11.4246 13.8743 14.1711 13.8743 17.5479C13.8743 20.9247 11.1278 23.6713 7.75103 23.6713Z" fill="#A6AAC8"></path> <path d="M7.34288 8.97545C5.99085 8.97545 4.89355 7.87815 4.89355 6.52613V3.26036C4.89355 1.90833 5.99085 0.811035 7.34288 0.811035C8.69491 0.811035 9.7922 1.90833 9.7922 3.26036V6.52613C9.7922 7.87815 8.69491 8.97545 7.34288 8.97545Z" fill="#A6AAC8"></path> <path d="M72.6583 79.1893C71.3063 79.1893 70.209 78.092 70.209 76.74V73.4742C70.209 72.1222 71.3063 71.0249 72.6583 71.0249C74.0103 71.0249 75.1076 72.1222 75.1076 73.4742V76.74C75.1076 78.092 74.0103 79.1893 72.6583 79.1893Z" fill="#A6AAC8"></path> <path d="M73.0665 75.9232H68.576C67.224 75.9232 66.1267 74.8259 66.1267 73.4739C66.1267 72.1219 67.224 71.0246 68.576 71.0246H73.0665C73.7425 71.0246 74.2911 70.4759 74.2911 69.7999C74.2911 69.1239 73.7425 68.5752 73.0665 68.5752H72.25C68.8732 68.5752 66.1267 65.8287 66.1267 62.4519C66.1267 59.0751 68.8732 56.3286 72.25 56.3286H76.7404C78.0925 56.3286 79.1898 57.4259 79.1898 58.7779C79.1898 60.13 78.0925 61.2273 76.7404 61.2273H72.25C71.574 61.2273 71.0254 61.7759 71.0254 62.4519C71.0254 63.1279 71.574 63.6766 72.25 63.6766H73.0665C76.4433 63.6766 79.1898 66.4231 79.1898 69.7999C79.1898 73.1767 76.4433 75.9232 73.0665 75.9232Z" fill="#A6AAC8"></path> <path d="M72.6583 61.2274C71.3063 61.2274 70.209 60.1301 70.209 58.7781V55.5123C70.209 54.1603 71.3063 53.063 72.6583 53.063C74.0103 53.063 75.1076 54.1603 75.1076 55.5123V58.7781C75.1076 60.1301 74.0103 61.2274 72.6583 61.2274Z" fill="#A6AAC8"></path> <path d="M77.5829 0.820805C62.2828 0.546481 44.8338 8.54434 33.789 20.951C23.234 21.1502 12.9567 25.4773 5.38987 33.0441C4.94899 33.4785 4.79224 34.1284 4.98492 34.7162C5.18086 35.3073 5.69032 35.7351 6.30429 35.8233L18.8905 37.626L17.336 39.3666C16.758 40.0133 16.7874 40.9963 17.4014 41.6102L38.3904 62.5993C38.7072 62.9161 39.1252 63.0761 39.5465 63.0761C39.9352 63.0761 40.3238 62.9389 40.634 62.6614L42.3747 61.1068L44.1774 73.6931C44.2656 74.3071 44.7489 74.7578 45.3335 74.9537C45.4837 75.0027 45.6404 75.0256 45.8005 75.0256C46.2642 75.0256 46.7377 74.8231 47.0643 74.4998C54.5266 67.0375 58.8537 56.7601 59.0529 46.2052C71.4727 35.1375 79.5358 17.695 79.1799 2.4145C79.157 1.54581 78.4549 0.843666 77.5829 0.820805ZM62.5343 29.0109C60.9438 30.6013 58.8537 31.3982 56.7604 31.3982C54.667 31.3982 52.5769 30.6013 50.9865 29.0109C47.8056 25.8268 47.8056 20.6473 50.9865 17.4632C54.1706 14.279 59.3501 14.279 62.5343 17.4632C65.7184 20.6473 65.7184 25.83 62.5343 29.0109Z" fill="#A6AAC8"></path> <path d="M9.70717 56.0186C6.2128 59.5129 1.41539 75.2997 0.879804 77.086C0.706718 77.6608 0.866741 78.2846 1.28802 78.7091C1.60154 79.0226 2.01629 79.1892 2.44411 79.1892C2.60086 79.1892 2.75762 79.1663 2.91438 79.1206C4.70075 78.585 20.4875 73.7876 23.9818 70.2932C27.9171 66.358 27.9171 59.9538 23.9818 56.0186C20.0433 52.0833 13.6424 52.0866 9.70717 56.0186Z" fill="#A6AAC8"></path> </svg> 