<?xml version="1.0" encoding="UTF-8"?> <svg xmlns="http://www.w3.org/2000/svg" width="80" height="80" viewBox="0 0 80 80" fill="none"> <path d="M40 33.1783C49.0763 33.1783 56.4341 25.8205 56.4341 16.7442C56.4341 7.66786 49.0763 0.310059 40 0.310059C30.9237 0.310059 23.5659 7.66786 23.5659 16.7442C23.5659 25.8205 30.9237 33.1783 40 33.1783Z" fill="#A6AAC8"></path> <path d="M53.7074 32.7524C50.0187 35.9157 45.2288 37.8297 40 37.8297C34.7711 37.8297 29.9812 35.9157 26.2925 32.7524C15.8381 35.9673 8.21704 45.7148 8.21704 57.2095V71.163C8.21704 75.8648 12.0423 79.6901 16.7442 79.6901H37.6744C37.6744 74.9883 33.8491 71.163 29.1473 71.163H21.3953C20.111 71.163 19.0698 70.1217 19.0698 68.8374V61.0855C19.0698 59.8011 20.111 58.7599 21.3953 58.7599C22.6797 58.7599 23.7209 59.8011 23.7209 61.0855V66.5118H29.1473C33.6445 66.5118 37.6209 68.7777 40 72.2261C42.3791 68.7777 46.3555 66.5118 50.8527 66.5118H56.2791V61.0855C56.2791 59.8011 57.3203 58.7599 58.6046 58.7599C59.889 58.7599 60.9302 59.8011 60.9302 61.0855V68.8374C60.9302 70.1217 59.889 71.163 58.6046 71.163H50.8527C46.1508 71.163 42.3256 74.9883 42.3256 79.6901H63.2558C67.9577 79.6901 71.7829 75.8648 71.7829 71.163V57.2095C71.7829 45.7148 64.1618 35.9673 53.7074 32.7524ZM50.7882 54.3613L41.6443 63.5052C41.1904 63.9591 40.5952 64.1862 40 64.1862C39.4048 64.1862 38.8096 63.9591 38.3556 63.505L29.2118 54.3611C26.1442 51.2935 26.1442 46.3024 29.2118 43.2346C30.6977 41.7487 32.6733 40.9304 34.7749 40.9304C36.7208 40.9304 38.5587 41.632 40 42.9157C41.4411 41.6321 43.2792 40.9304 45.2251 40.9304C47.3267 40.9304 49.3023 41.7487 50.7884 43.2348C53.8558 46.3024 53.8558 51.2937 50.7882 54.3613Z" fill="#A6AAC8"></path> <path d="M45.2253 45.5815C44.366 45.5815 43.5584 45.916 42.951 46.5236L41.6445 47.8299C40.7364 48.738 39.2639 48.738 38.3557 47.8299L37.0493 46.5236C36.4417 45.916 35.6341 45.5815 34.7749 45.5815C33.9158 45.5815 33.1082 45.916 32.5008 46.5236C31.2465 47.7777 31.2465 49.8183 32.5006 51.0724L40.0002 58.5718L47.4995 51.0724C48.7536 49.8183 48.7536 47.7777 47.4995 46.5236C46.8919 45.916 46.0843 45.5815 45.2253 45.5815Z" fill="#A6AAC8"></path> </svg> 